<?xml version="1.0" encoding="UTF-8"?>
<svg version="1.1" xmlns="http://www.w3.org/2000/svg" width="1024" height="1024">
<path d="M0 0 C337.92 0 675.84 0 1024 0 C1024 337.92 1024 675.84 1024 1024 C686.08 1024 348.16 1024 0 1024 C0 686.08 0 348.16 0 0 Z " fill="#F2F2F3" transform="translate(0,0)"/>
<path d="M0 0 C2.3656718 2.13168401 4.0507019 4.61103021 5.8125 7.25 C6.28880859 7.91902344 6.76511719 8.58804687 7.25585938 9.27734375 C9.66230755 12.72286307 11.65359179 15.98412348 13 20 C13.89460938 19.66226562 14.78921875 19.32453125 15.7109375 18.9765625 C16.92007813 18.53054688 18.12921875 18.08453125 19.375 17.625 C20.55835938 17.18414062 21.74171875 16.74328125 22.9609375 16.2890625 C32.07240784 13.22761757 40.86750142 12.66078309 50.4375 12.6875 C51.58798828 12.67138672 52.73847656 12.65527344 53.92382812 12.63867188 C69.21097661 12.6300106 80.4721692 16.86986847 91.51171875 27.375 C97.13070989 33.30272692 99.04319555 38.58048023 100.375 46.5625 C101.67407383 53.68256037 103.47602891 57.39176743 109 62 C109.85722656 62.74765625 110.71445312 63.4953125 111.59765625 64.265625 C121.39137217 72.22713834 132.00142667 76.09465446 144.0625 79.0625 C149.77516667 80.53385419 153.22050988 81.42482775 157 86 C163.54988383 97.25930443 164.49344801 108.38078366 162.50390625 121.1953125 C159.61910724 131.59362758 153.47230141 138.97772029 144.37890625 144.62890625 C125.87029712 154.64917089 101.57544098 157.06077231 81.21484375 151.9765625 C70.76941617 148.80358936 61.23442622 144.44016393 54 136 C54 135.34 54 134.68 54 134 C53.34515625 134.03480469 52.6903125 134.06960938 52.015625 134.10546875 C38.547435 134.50494896 27.27542108 130.87858424 17.1875 121.8125 C10.53520799 114.52965898 8.60819165 107.33495993 8.8125 97.6875 C8.84802979 96.92268311 8.88355957 96.15786621 8.92016602 95.36987305 C9.1248354 90.77009197 8.79130733 87.35031779 7 83 C0.84308931 81.70699436 0.84308931 81.70699436 -4.9375 83.625 C-10.56569472 90.1059515 -9.58810284 98.64686767 -9.19091797 106.7421875 C-8.35702455 116.60388362 -4.22752466 124.49503438 2 132 C2.50015625 132.62390625 3.0003125 133.2478125 3.515625 133.890625 C11.63660996 142.99597177 26.11317902 150.22354809 38.23828125 151.17578125 C38.88152344 151.20027344 39.52476562 151.22476563 40.1875 151.25 C44.31169614 152.06131727 45.44959813 152.9611725 48.5625 155.625 C62.86194568 167.82544448 82.68951958 172.20669474 101.0625 172.125 C102.45033691 172.12971313 102.45033691 172.12971313 103.86621094 172.13452148 C108.00345637 172.12625275 112.06217537 172.06226417 116.16796875 171.52734375 C125.96384756 170.25612284 125.96384756 170.25612284 130.75 173.8125 C132.19863305 175.17512886 133.6140524 176.57366049 135 178 C135.82113281 178.73863281 136.64226562 179.47726562 137.48828125 180.23828125 C152.4855311 194.14316692 159.02362232 213.04340585 161 233 C161 238.61 161 244.22 161 250 C143.51 250 126.02 250 108 250 C109.12127751 238.78722486 109.12127751 238.78722486 109.75390625 234.421875 C109.88603516 233.48859375 110.01816406 232.5553125 110.15429688 231.59375 C110.42870885 229.68205702 110.70477753 227.7706012 110.98242188 225.859375 C111.63931584 221.19963456 112.18218246 216.72090204 112 212 C111.51233154 212.50861572 111.02466309 213.01723145 110.5222168 213.54125977 C88.68870161 236.18732834 88.68870161 236.18732834 76 238 C76 232.39 76 226.78 76 221 C70.86557518 222.40193701 70.86557518 222.40193701 69.5234375 226.0546875 C69.14445313 227.31539062 68.76546875 228.57609375 68.375 229.875 C67.99085938 231.10992188 67.60671875 232.34484375 67.2109375 233.6171875 C65.70933859 239.05200679 64.36752374 244.52990504 63 250 C49.14 250 35.28 250 21 250 C20.625 240.125 20.625 240.125 20.52197266 237.07861328 C20.25570832 230.88947346 19.39577872 225.03415969 18 219 C17.41694092 218.85191895 16.83388184 218.70383789 16.2331543 218.55126953 C10.18651235 216.97010943 4.52244061 214.62798766 -1.1875 212.125 C-1.94724121 211.79757812 -2.70698242 211.47015625 -3.48974609 211.1328125 C-8.47689169 208.90712626 -12.60321325 206.2305158 -17 203 C-17.99 202.67 -18.98 202.34 -20 202 C-18.69875157 211.69205727 -14.15504989 217.38672459 -6.87890625 223.62109375 C-5.02266878 225.07778687 -5.02266878 225.07778687 -2.77734375 226.03515625 C-0.5625 227.1875 -0.5625 227.1875 3 231 C3 237.27 3 243.54 3 250 C-10.53 250 -24.06 250 -38 250 C-58.34902203 194.76694021 -74.39805608 135.31701876 -48.87670898 78.75195312 C-42.56349468 65.4865968 -34.47378002 54.26743517 -24 44 C-23.154375 43.16726563 -22.30875 42.33453125 -21.4375 41.4765625 C-6.0221843 27 -6.0221843 27 0 27 C-0.92232422 25.57107422 -0.92232422 25.57107422 -1.86328125 24.11328125 C-2.67972839 22.84638052 -3.49613235 21.57945196 -4.3125 20.3125 C-4.71662109 19.68666016 -5.12074219 19.06082031 -5.53710938 18.41601562 C-6.33071455 17.18366937 -7.12122348 15.94932306 -7.90844727 14.71289062 C-8.86251373 13.21574674 -9.8286926 11.72633551 -10.796875 10.23828125 C-12 8 -12 8 -11.9375 4.875 C-11 2 -11 2 -9.375 0.0625 C-5.8013183 -1.53625234 -3.75597078 -1.03081848 0 0 Z " fill="#F2F2F2" transform="translate(204,381)"/>
<path d="M0 0 C5.61774115 3.38016628 9.48236702 8.59670692 12.84375 14.109375 C14.38566154 13.96615397 15.92726892 13.81965711 17.46875 13.671875 C18.32726562 13.59066406 19.18578125 13.50945312 20.0703125 13.42578125 C21.92695596 13.213967 23.77731982 12.93782579 25.61523438 12.60009766 C31.28896464 11.73771125 36.99048482 11.92483076 42.71875 11.921875 C44.58080078 11.90350586 44.58080078 11.90350586 46.48046875 11.88476562 C52.96073945 11.87441375 58.65286034 12.1465992 64.84375 14.109375 C64.885 13.42875 64.92625 12.748125 64.96875 12.046875 C66.54072629 6.76952603 70.1612298 3.29478696 74.59375 0.171875 C80.44529562 -1.7411303 85.65758709 -1.98370646 91.21875 0.796875 C97.54464593 6.36968808 97.54464593 6.36968808 98.2265625 10.3359375 C98.5835486 18.02303828 96.04365972 23.80951042 91.84375 30.109375 C92.71386719 30.48449219 92.71386719 30.48449219 93.6015625 30.8671875 C101.651281 35.32678765 106.71373182 44.78395249 109.84375 53.109375 C110.14416449 55.01878911 110.39667333 56.93654586 110.59375 58.859375 C111.27096554 63.51271739 112.68107115 65.46632868 116.28125 68.484375 C123.86571885 73.7935032 131.44581632 76.8383174 140.40625 79.046875 C151.95987326 82.00844206 159.79762251 87.41746842 166.84375 97.109375 C175.03433812 111.65266317 176.15555108 128.20520057 172.21875 144.296875 C167.37650316 159.78531611 156.93389392 171.23999665 142.84375 179.109375 C142.18375 179.109375 141.52375 179.109375 140.84375 179.109375 C141.44509766 179.76679687 141.44509766 179.76679687 142.05859375 180.4375 C154.1141179 193.88720041 162.51428063 207.53688885 167.71875 224.859375 C167.90985352 225.49512451 168.10095703 226.13087402 168.29785156 226.78588867 C171.3362965 237.70030272 172.19614021 248.71688039 172.15942383 260.00512695 C172.15621454 262.06968783 172.18001244 264.13287544 172.20507812 266.19726562 C172.20734753 267.53124823 172.20805628 268.86523461 172.20703125 270.19921875 C172.21150269 271.97607056 172.21150269 271.97607056 172.21606445 273.78881836 C171.79361893 277.55647837 170.88687609 279.92383099 168.84375 283.109375 C165.0521759 285.91119919 160.55445681 285.39340001 156.05105591 285.37680054 C155.15349008 285.38133165 154.25592426 285.38586276 153.33115947 285.39053118 C150.31723789 285.40321273 147.30349613 285.40155239 144.28955078 285.39990234 C142.13123339 285.40588523 139.97291813 285.41269022 137.81460571 285.42025757 C131.94684684 285.43794874 126.07914628 285.44261425 120.21136332 285.44388914 C115.31562522 285.4457867 110.41990075 285.45314254 105.5241679 285.46023333 C93.97525206 285.47652658 82.42636741 285.48140141 70.87744141 285.47998047 C58.95770847 285.47877864 47.03815649 285.49988659 35.11846936 285.5314678 C24.88992081 285.55760422 14.66143146 285.56834888 4.43284976 285.56706965 C-1.67850738 285.56655926 -7.78970375 285.57228502 -13.90102768 285.59342575 C-19.64827304 285.61276378 -25.39520352 285.61296285 -31.14245987 285.59839249 C-33.25239775 285.59629781 -35.36235512 285.60104428 -37.47225952 285.6131134 C-40.35174128 285.62851847 -43.23013087 285.6192889 -46.10958862 285.60385132 C-46.94539172 285.61413844 -47.78119482 285.62442557 -48.64232528 285.63502443 C-53.93693021 285.57225574 -56.94870046 284.61402437 -61.15625 281.109375 C-62.4128418 279.12231445 -62.4128418 279.12231445 -63.16796875 276.91015625 C-63.48040527 276.0279541 -63.7928418 275.14575195 -64.11474609 274.23681641 C-64.63029053 272.68873291 -64.63029053 272.68873291 -65.15625 271.109375 C-65.59146973 269.8826709 -66.02668945 268.6559668 -66.47509766 267.39208984 C-87.18869129 208.92973382 -100.18863468 145.00133039 -72.34375 86.421875 C-63.56742053 68.74202288 -50.88933663 52.18360427 -35.15625 40.109375 C-34.49625 40.109375 -33.83625 40.109375 -33.15625 40.109375 C-33.50558594 39.42230469 -33.85492188 38.73523438 -34.21484375 38.02734375 C-34.89740234 36.67576172 -34.89740234 36.67576172 -35.59375 35.296875 C-36.04621094 34.40355469 -36.49867188 33.51023437 -36.96484375 32.58984375 C-39.69826936 26.89894125 -40.30675795 21.54542117 -38.28515625 15.5078125 C-34.71002456 7.74801847 -30.14684805 3.26732625 -22.40625 -0.265625 C-15.09007055 -2.92302149 -7.21447372 -3.13415662 0 0 Z M-18.15625 18.171875 C-20.42321114 20.88920921 -20.42321114 20.88920921 -20.09375 23.80859375 C-18.87028131 28.1162231 -16.72248059 31.23101008 -14.15625 34.859375 C-9.18137563 42.05912374 -9.18137563 42.05912374 -8.15625 44.109375 C-8.87425781 44.36589844 -9.59226563 44.62242187 -10.33203125 44.88671875 C-28.00722109 52.53863358 -43.07554823 70.72383451 -52.15625 87.109375 C-52.49398437 87.71378418 -52.83171875 88.31819336 -53.1796875 88.94091797 C-61.89670893 104.74051931 -66.56999457 121.32189162 -69.15625 139.109375 C-69.34058594 140.16640625 -69.52492187 141.2234375 -69.71484375 142.3125 C-74.33662329 182.06798418 -64.02118499 231.37950501 -46.15625 267.109375 C-32.62625 267.109375 -19.09625 267.109375 -5.15625 267.109375 C-2.98592845 249.44262352 -2.98592845 249.44262352 -9.15625 243.859375 C-10.80759146 242.9153798 -12.47467342 241.99839455 -14.15625 241.109375 C-22.18006545 234.87796509 -26.4503935 229.2098411 -28.15625 219.109375 C-27.42535156 219.52896484 -27.42535156 219.52896484 -26.6796875 219.95703125 C-9.35130486 230.75100721 -9.35130486 230.75100721 9.84375 236.109375 C11.47756313 243.17259299 12.22401982 249.99801685 12.46875 257.234375 C12.5925 260.493125 12.71625 263.751875 12.84375 267.109375 C26.70375 267.109375 40.56375 267.109375 54.84375 267.109375 C56.16375 261.829375 57.48375 256.549375 58.84375 251.109375 C61.51175051 242.33079268 61.51175051 242.33079268 62.84375 240.109375 C65.31875 239.119375 65.31875 239.119375 67.84375 238.109375 C67.84375 243.719375 67.84375 249.329375 67.84375 255.109375 C83.67218209 252.84817042 93.24789998 240.16035818 103.84375 229.109375 C103.46868581 238.60237888 102.56654824 247.81519555 100.86010742 257.16748047 C100.24264139 260.56716681 99.84375 263.63859006 99.84375 267.109375 C117.33375 267.109375 134.82375 267.109375 152.84375 267.109375 C152.84375 240.46442439 148.97606922 216.93064465 129.65625 197.484375 C123.2812831 190.80673635 123.2812831 190.80673635 114.93359375 187.9375 C113.37318359 188.14632812 113.37318359 188.14632812 111.78125 188.359375 C87.32801217 190.83826711 64.05088173 188.7548066 42.84375 175.109375 C41.67479573 174.05103146 40.52665781 172.9689837 39.40625 171.859375 C35.6987916 168.45133129 31.95639377 168.26814799 27.08984375 167.6484375 C12.53041663 165.2306265 -1.18263099 156.61885546 -9.875 144.765625 C-15.64136644 135.83341032 -17.3976961 127.28615614 -17.53125 116.796875 C-17.54526855 116.03181641 -17.55928711 115.26675781 -17.57373047 114.47851562 C-17.52501249 108.76726916 -16.28720719 104.65013165 -12.53125 100.171875 C-8.75093533 98.48068159 -5.14471623 99.40201881 -1.15625 100.109375 C0.63948131 104.46057009 0.95143027 107.83305689 0.71313477 112.4284668 C0.14073051 123.48441399 2.49130555 131.51483718 9.96875 139.984375 C20.22462368 149.26457928 32.54380563 151.55684976 45.84375 151.109375 C46.10285156 151.69847656 46.36195313 152.28757812 46.62890625 152.89453125 C51.25578384 161.33002833 61.06988959 165.26665359 69.78125 168.046875 C90.6975673 173.95800815 114.02798562 172.17220914 133.84375 163.109375 C143.57446769 157.59046049 150.17897393 150.74662247 153.84375 140.109375 C156.42992743 130.40258906 156.52437835 117.10428935 152.046875 108.0546875 C147.51035096 100.71965837 142.59160908 97.34774432 134.25756836 95.3737793 C133.4403833 95.18340088 132.62319824 94.99302246 131.78125 94.796875 C119.30789436 91.67705159 109.44918061 86.77309673 99.84375 78.109375 C99.23402344 77.60148437 98.62429688 77.09359375 97.99609375 76.5703125 C93.56041538 72.31990817 93.00136219 67.72666148 92.01025391 61.80395508 C90.05822494 50.80915873 83.61567423 43.66564333 74.84375 37.109375 C64.6567823 30.7132697 54.61356 29.71861076 42.78125 29.734375 C41.58910889 29.73526123 40.39696777 29.73614746 39.16870117 29.73706055 C29.81565273 29.86207246 21.68452012 31.04530685 12.84375 34.109375 C11.94011719 34.41746094 11.03648437 34.72554688 10.10546875 35.04296875 C8.33308934 35.68273955 6.58311584 36.38463923 4.84375 37.109375 C4.62074219 36.44421875 4.39773437 35.7790625 4.16796875 35.09375 C2.42693429 31.17000273 0.13954705 27.84741605 -2.34375 24.359375 C-2.80072266 23.67488281 -3.25769531 22.99039062 -3.72851562 22.28515625 C-6.28902076 18.69831826 -7.47410068 17.31017772 -11.83203125 16.02734375 C-15.30614233 15.81037032 -15.30614233 15.81037032 -18.15625 18.171875 Z " fill="#121212" transform="translate(212.15625,363.890625)"/>
<path d="M0 0 C9.12707161 6.81169338 14.71786707 16.48700124 16.38671875 27.78125 C17.23021402 42.73706997 15.26734226 54.59705962 5.86328125 66.75 C-0.25095797 73.55022703 -9.56539575 78.38516682 -18.71484375 78.984375 C-30.40860369 79.13994609 -38.73316422 77.65645771 -47.61328125 69.78125 C-48.60328125 68.79125 -49.59328125 67.80125 -50.61328125 66.78125 C-50.94328125 80.97125 -51.27328125 95.16125 -51.61328125 109.78125 C-58.54328125 109.78125 -65.47328125 109.78125 -72.61328125 109.78125 C-72.61328125 71.83125 -72.61328125 33.88125 -72.61328125 -5.21875 C-65.68328125 -5.21875 -58.75328125 -5.21875 -51.61328125 -5.21875 C-51.28328125 -2.24875 -50.95328125 0.72125 -50.61328125 3.78125 C-49.64390625 2.87375 -48.67453125 1.96625 -47.67578125 1.03125 C-33.83750602 -10.84215857 -14.71785662 -9.42682182 0 0 Z " fill="#121212" transform="translate(638.61328125,416.21875)"/>
<path d="M0 0 C8.1603144 6.10354122 13.36258196 14.24299052 16 24.0703125 C18.13590021 39.06476344 16.28818897 52.31470032 7.38671875 64.78515625 C1.24716667 72.51978804 -7.7901334 77.5221801 -17.61328125 78.78515625 C-28.51579713 79.63312971 -37.26526355 78.10996493 -46.01953125 71.3828125 C-47.7505058 69.64759536 -48.64632283 68.02366499 -49.61328125 65.78515625 C-50.27328125 65.78515625 -50.93328125 65.78515625 -51.61328125 65.78515625 C-51.61328125 80.30515625 -51.61328125 94.82515625 -51.61328125 109.78515625 C-58.54328125 109.78515625 -65.47328125 109.78515625 -72.61328125 109.78515625 C-72.61328125 71.83515625 -72.61328125 33.88515625 -72.61328125 -5.21484375 C-65.68328125 -5.21484375 -58.75328125 -5.21484375 -51.61328125 -5.21484375 C-51.28328125 -1.91484375 -50.95328125 1.38515625 -50.61328125 4.78515625 C-49.47890625 3.71265625 -48.34453125 2.64015625 -47.17578125 1.53515625 C-33.33669206 -10.60784563 -14.99269781 -9.57932184 0 0 Z " fill="#121212" transform="translate(738.61328125,416.21484375)"/>
<path d="M0 0 C1.9113266 1.65895073 3.72145795 3.3462637 5.46875 5.17578125 C5.79875 2.20578125 6.12875 -0.76421875 6.46875 -3.82421875 C13.39875 -3.82421875 20.32875 -3.82421875 27.46875 -3.82421875 C27.46875 23.23578125 27.46875 50.29578125 27.46875 78.17578125 C20.86875 78.17578125 14.26875 78.17578125 7.46875 78.17578125 C7.46875 74.54578125 7.46875 70.91578125 7.46875 67.17578125 C6.80875 67.17578125 6.14875 67.17578125 5.46875 67.17578125 C5.2625 67.73265625 5.05625 68.28953125 4.84375 68.86328125 C1.22304155 74.95265455 -5.06979325 77.88336877 -11.53125 80.17578125 C-22.40474771 82.7819688 -32.54436644 81.11837983 -42.265625 75.6328125 C-52.84793527 68.62604039 -59.50090337 59.84902507 -62.14453125 47.25390625 C-63.93877936 32.97241627 -62.14226882 20.96857629 -53.375 9.359375 C-40.73611626 -5.6091335 -16.88252472 -12.16688124 0 0 Z " fill="#121212" transform="translate(651.53125,552.82421875)"/>
<path d="M0 0 C8.86962156 6.38321945 13.93231672 14.36335641 17.3828125 24.71484375 C18.55226369 38.5482415 18.28515047 51.6658327 9.12890625 62.80859375 C0.8205208 71.87904588 -8.95968426 78.18673605 -21.5234375 78.953125 C-36.67270228 79.32193352 -48.26732929 76.49859726 -59.6171875 65.8359375 C-69.52444019 55.26677784 -71.10983196 44.286662 -70.89453125 30.3984375 C-70.67353164 24.84705911 -69.44464346 20.50654482 -66.6171875 15.71484375 C-66.19308594 14.95171875 -65.76898437 14.18859375 -65.33203125 13.40234375 C-59.1528048 3.21264442 -50.18570878 -3.53419096 -38.72436523 -6.8293457 C-25.35634743 -9.72102561 -11.39838348 -7.30711417 0 0 Z " fill="#121213" transform="translate(834.6171875,416.28515625)"/>
<path d="M0 0 C6.93 0 13.86 0 21 0 C21 15.51 21 31.02 21 47 C38.49 47 55.98 47 74 47 C74 31.49 74 15.98 74 0 C81.26 0 88.52 0 96 0 C96 37.95 96 75.9 96 115 C88.74 115 81.48 115 74 115 C74 99.16 74 83.32 74 67 C56.84 67 39.68 67 22 67 C22 82.84 22 98.68 22 115 C14.74 115 7.48 115 0 115 C0 77.05 0 39.1 0 0 Z " fill="#131313" transform="translate(414,378)"/>
<path d="M0 0 C8.97207249 7.41950087 13.5258527 15.9662546 15.72265625 27.31640625 C15.72265625 32.26640625 15.72265625 37.21640625 15.72265625 42.31640625 C-5.72734375 42.31640625 -27.17734375 42.31640625 -49.27734375 42.31640625 C-44.49624494 52.52055077 -44.49624494 52.52055077 -36.046875 58.421875 C-29.42802048 60.55969966 -20.27727312 60.35832799 -13.65234375 58.12890625 C-10.1577754 56.46121014 -10.1577754 56.46121014 -7.52734375 53.56640625 C-6.78484375 52.82390625 -6.04234375 52.08140625 -5.27734375 51.31640625 C-1.08274743 51.49753655 2.18311192 54.51838708 5.47265625 56.87890625 C6.37564453 57.51602539 6.37564453 57.51602539 7.296875 58.16601562 C8.77595339 59.21076147 10.24982884 60.26286641 11.72265625 61.31640625 C8.34005951 69.00718591 1.05807784 73.18266911 -6.42578125 76.31640625 C-19.50360191 80.90260089 -32.47383825 80.51179856 -45.27734375 75.31640625 C-57.8071062 69.24402138 -63.93767134 61.07214934 -69.09375 48.29296875 C-72.44438608 37.56156088 -70.94121234 25.3516653 -66.27734375 15.31640625 C-59.98664053 3.73208534 -51.38155419 -3.27749701 -38.85546875 -7.5 C-25.5793456 -10.86610924 -11.01475675 -8.14298484 0 0 Z " fill="#131313" transform="translate(564.27734375,554.68359375)"/>
<path d="M0 0 C6.72410392 4.63092556 11.94493118 9.94774923 14 18 C15.08965233 24.88298717 15.12916638 31.63459109 15.09765625 38.59375 C15.0962413 39.78101685 15.09482635 40.96828369 15.09336853 42.19152832 C15.08779811 45.96104516 15.07525105 49.73050129 15.0625 53.5 C15.05748118 56.06510331 15.05291894 58.63020755 15.04882812 61.1953125 C15.03783836 67.46356485 15.02059416 73.73177215 15 80 C8.07 80 1.14 80 -6 80 C-6.01458252 78.53248291 -6.02916504 77.06496582 -6.04418945 75.55297852 C-6.10240737 70.07910481 -6.17963888 64.60563238 -6.26245117 59.13208008 C-6.2955902 56.76853984 -6.32365602 54.40492255 -6.34643555 52.04125977 C-6.38018423 48.63264306 -6.43251129 45.22472537 -6.48828125 41.81640625 C-6.49467117 40.76916885 -6.5010611 39.72193146 -6.50764465 38.64295959 C-6.65374233 31.25947068 -7.04844572 23.87956515 -12.5625 18.5 C-18.14320652 15.06571907 -23.55876644 15.59153153 -30 16 C-35.28728134 17.51065181 -37.28013189 20.34584875 -40.01953125 24.8671875 C-41.81417715 28.77107858 -42.12674771 32.719626 -42.20532227 36.97387695 C-42.22526749 37.93449539 -42.24521271 38.89511383 -42.26576233 39.88484192 C-42.29083107 41.42104439 -42.29083107 41.42104439 -42.31640625 42.98828125 C-42.33718735 44.04661667 -42.35796844 45.10495209 -42.37937927 46.19535828 C-42.44463103 49.56767441 -42.50364637 52.94006674 -42.5625 56.3125 C-42.6057084 58.60222134 -42.64932343 60.89193505 -42.69335938 63.18164062 C-42.80105067 68.78768353 -42.9003057 74.39378637 -43 80 C-49.93 80 -56.86 80 -64 80 C-64 52.94 -64 25.88 -64 -2 C-57.07 -2 -50.14 -2 -43 -2 C-42.67 0.97 -42.34 3.94 -42 7 C-41.53851562 6.54109375 -41.07703125 6.0821875 -40.6015625 5.609375 C-28.91068081 -5.38837141 -14.47716991 -7.25809597 0 0 Z " fill="#111212" transform="translate(823,551)"/>
<path d="M0 0 C6.93 0 13.86 0 21 0 C21 31.35 21 62.7 21 95 C38.82 95 56.64 95 75 95 C75 101.27 75 107.54 75 114 C50.25 114 25.5 114 0 114 C0 76.38 0 38.76 0 0 Z " fill="#121212" transform="translate(414,517)"/>
<path d="M0 0 C0 6.93 0 13.86 0 21 C-3.7125 21.0928125 -3.7125 21.0928125 -7.5 21.1875 C-15.82032152 21.58877205 -20.6982934 23.44431597 -26.4375 29.625 C-28.71682354 33.08957178 -29.13241118 35.78684973 -29.20532227 39.83862305 C-29.22526749 40.8194133 -29.24521271 41.80020355 -29.26576233 42.81071472 C-29.29083107 44.39521172 -29.29083107 44.39521172 -29.31640625 46.01171875 C-29.33718735 47.09508011 -29.35796844 48.17844147 -29.37937927 49.29463196 C-29.44481797 52.75885616 -29.50373353 56.2231568 -29.5625 59.6875 C-29.60569061 62.03451315 -29.64930507 64.38151853 -29.69335938 66.72851562 C-29.80129198 72.48559984 -29.90040811 78.24274123 -30 84 C-37.26 84 -44.52 84 -52 84 C-52 56.61 -52 29.22 -52 1 C-44.74 1 -37.48 1 -30 1 C-29.67 3.64 -29.34 6.28 -29 9 C-28.5153125 8.52949219 -28.030625 8.05898438 -27.53125 7.57421875 C-19.60342513 0.21048911 -10.8327223 -3.61090743 0 0 Z " fill="#131313" transform="translate(747,548)"/>
<path d="M0 0 C6.15666569 3.80107186 10.37069725 9.54815751 12.4375 16.4375 C13.38530887 24.03167228 12.43824872 30.84075983 8.4375 37.4375 C3.42898281 43.32139962 -2.32760505 46.67120781 -9.9375 47.78515625 C-16.72527779 48.19878646 -22.04186872 46.37808853 -27.5625 42.4375 C-33.62673993 36.4484366 -35.58131975 30.03081126 -36 21.625 C-35.86560666 15.30851298 -34.33851632 10.52337845 -30.5625 5.4375 C-22.6214922 -2.14817088 -10.2944823 -4.68659311 0 0 Z " fill="#F2F2F2" transform="translate(646.5625,567.5625)"/>
<path d="M0 0 C5.90386449 4.81454097 9.17586828 10.92777777 10.0859375 18.4765625 C10.2682556 27.18493301 8.90043502 33.61632491 3.0703125 40.27734375 C-2.39046617 45.39297163 -8.57749603 46.92902914 -15.95703125 46.703125 C-23.20674185 45.75433737 -28.34444329 42.2452779 -32.84375 36.59765625 C-37.01666579 30.23084978 -38.50402751 22.9186432 -37.28515625 15.3984375 C-34.50133809 7.23732957 -30.55133751 2.92332029 -23.22265625 -1.4140625 C-16.04625493 -4.18893768 -6.65148665 -3.96557978 0 0 Z " fill="#F2F2F2" transform="translate(623.28515625,430.6015625)"/>
<path d="M0 0 C4.73903076 3.55978357 8.33818914 8.45895839 9.6796875 14.26171875 C10.60957042 24.22293026 9.74441166 31.69470338 3.4921875 39.57421875 C-1.23214125 44.61548361 -5.99251621 46.33169692 -12.8203125 46.63671875 C-19.53514729 46.38201812 -25.594211 44.11555272 -30.3203125 39.26171875 C-35.6706695 30.91031164 -37.13377093 24.20005876 -36.3203125 14.26171875 C-34.59313392 7.54002377 -29.8478476 3.17434654 -24.3203125 -0.73828125 C-17.10375258 -4.51057394 -6.9882776 -4.13207285 0 0 Z " fill="#F2F2F2" transform="translate(723.3203125,430.73828125)"/>
<path d="M0 0 C6.39401757 3.43189106 9.86846358 7.50704168 12.2578125 14.38671875 C14.34904532 22.80144129 13.08504446 31.55399865 8.73046875 39.0703125 C4.88259317 44.18264577 0.00331949 46.39316615 -6.0859375 48.02734375 C-12.90335642 48.86457063 -18.94798615 46.81027066 -24.8359375 43.46484375 C-30.99089064 36.79697785 -32.83589797 29.89215908 -32.67285156 20.93505859 C-32.33016118 14.76809615 -31.04462792 9.82327444 -27.0859375 5.02734375 C-18.97157115 -1.89331546 -10.04864905 -4.34373873 0 0 Z " fill="#F2F2F2" transform="translate(818.0859375,428.97265625)"/>
<path d="M0 0 C6.93 0 13.86 0 21 0 C21 27.06 21 54.12 21 82 C14.07 82 7.14 82 0 82 C0 54.94 0 27.88 0 0 Z " fill="#121212" transform="translate(528,411)"/>
<path d="M0 0 C4.32666167 2.53407115 7.22204019 5.54639949 9.44921875 10.08984375 C9.94421875 14.04984375 9.94421875 14.04984375 10.44921875 18.08984375 C-3.41078125 18.08984375 -17.27078125 18.08984375 -31.55078125 18.08984375 C-31.55078125 11.79781357 -31.29623211 10.72237508 -27.55078125 6.08984375 C-20.16420508 -1.25625803 -9.99589077 -3.56668078 0 0 Z " fill="#EFEFEF" transform="translate(547.55078125,564.91015625)"/>
<path d="M0 0 C4.33976986 2.25334204 7.09688482 4.45366929 9 9 C9.53751218 13.22330997 9.28625223 15.42749554 7.375 19.25 C4.01807126 23.13697012 1.06983519 24.69814904 -4 25.4375 C-7.94665429 24.86194625 -9.96043437 23.56674431 -13 21 C-15.64201025 16.94891762 -16.70236884 13.8162435 -16 9 C-12.26055342 1.9366009 -8.07493992 -0.99165929 0 0 Z " fill="#131313" transform="translate(542,376)"/>
<path d="M0 0 C4.36859523 2.22551078 7.05621805 4.46450877 9 9 C9.59047513 12.96461874 9.19372634 14.6471413 7.25 18.1875 C2.82627674 23.71715408 2.82627674 23.71715408 -1.04296875 24.31640625 C-6.50197667 24.59987232 -9.77262317 23.71184307 -14 20 C-16.29968534 17.07312775 -16.52999194 13.78906984 -16.4609375 10.1015625 C-15.60803882 6.21292275 -12.90176501 3.59354645 -10 1 C-6.78314421 -0.60842789 -3.4888991 -0.46778535 0 0 Z " fill="#131313" transform="translate(266,421)"/>
<path d="M0 0 C7.92 0 15.84 0 24 0 C24.175716 10.90029577 24.34284774 21.80062966 24.49477577 32.70128345 C24.56566353 37.76262635 24.64034553 42.82385452 24.72363281 47.88500977 C24.80383762 52.76726753 24.87416185 57.64957593 24.93757248 62.5320797 C24.96354044 64.39689078 24.99309743 66.26165537 25.02626419 68.12635231 C25.07203333 70.73369922 25.10515703 73.3409181 25.13525391 75.94848633 C25.16006584 77.11050064 25.16006584 77.11050064 25.18537903 78.29598999 C25.21565123 82.09503077 25.16320015 83.75519978 23 87 C23 58.95 23 30.9 23 2 C15.74 2 8.48 2 1 2 C1 17.51 1 33.02 1 49 C-16.16 49 -33.32 49 -51 49 C-51 33.49 -51 17.98 -51 2 C-50.67 2 -50.34 2 -50 2 C-50 16.85 -50 31.7 -50 47 C-33.83 47 -17.66 47 -1 47 C-1.03958729 32.2804993 -1.03958729 32.2804993 -1.09008789 17.56103516 C-1.09300756 15.72037819 -1.095556 13.87972058 -1.09765625 12.0390625 C-1.10277222 11.07766357 -1.10788818 10.11626465 -1.11315918 9.12573242 C-1.11334045 7.7556604 -1.11334045 7.7556604 -1.11352539 6.35791016 C-1.115746 5.56293121 -1.11796661 4.76795227 -1.12025452 3.94888306 C-1 2 -1 2 0 0 Z " fill="#FBFBFB" transform="translate(487,376)"/>
<path d="M0 0 C0.99 0 1.98 0 3 0 C3 36.63 3 73.26 3 111 C8.28 111 13.56 111 19 111 C19 97.47 19 83.94 19 70 C19.33 70 19.66 70 20 70 C20.33 84.52 20.66 99.04 21 114 C14.07 114 7.14 114 0 114 C0 76.38 0 38.76 0 0 Z " fill="#2A2A2A" transform="translate(666,412)"/>
<path d="M0 0 C3.40569591 2.14706916 5.80960782 4.10417103 7 8 C7.4012678 11.53258976 7.58902401 14.78513798 6 18.0625 C2.60118974 19.65569231 -0.53295612 19.0222545 -4 18 C-8.27127496 15.92046508 -11.34554802 13.98167797 -14 10 C-14.55429864 3.7918552 -14.55429864 3.7918552 -12.6875 1.125 C-8.60034276 -1.59977149 -4.56524366 -1.1591439 0 0 Z " fill="#141414" transform="translate(308,470)"/>
<path d="M0 0 C0.33 0 0.66 0 1 0 C1.1758074 9.04150302 1.34174443 18.08317383 1.5 27.125 C1.51187725 27.80328732 1.5237545 28.48157463 1.53599167 29.18041611 C2.03315653 57.7889043 2.10404708 86.38705258 2 115 C8.93 115 15.86 115 23 115 C23 100.48 23 85.96 23 71 C23.66 71 24.32 71 25 71 C26.28430862 72.47695491 27.56580708 73.95806138 28.78125 75.4921875 C30.06784671 77.13813095 30.06784671 77.13813095 32 79 C29.13275314 78.42655063 28.1385485 78.1385485 26 76 C25.97494385 77.17618896 25.9498877 78.35237793 25.92407227 79.56420898 C25.83017194 83.91214622 25.72990952 88.25991716 25.62768555 92.60766602 C25.58427067 94.49239218 25.54260057 96.37715936 25.50268555 98.26196289 C25.44514107 100.96513249 25.38140196 103.66809436 25.31640625 106.37109375 C25.29133751 107.64296791 25.29133751 107.64296791 25.26576233 108.9405365 C25.11387171 114.88612829 25.11387171 114.88612829 24 116 C22.29227642 116.08713831 20.58101351 116.10700007 18.87109375 116.09765625 C17.31938477 116.09282227 17.31938477 116.09282227 15.73632812 116.08789062 C14.64771484 116.07951172 13.55910156 116.07113281 12.4375 116.0625 C10.7987793 116.05573242 10.7987793 116.05573242 9.12695312 116.04882812 C6.41791505 116.03699826 3.70898401 116.02051543 1 116 C-0.20139488 113.59721025 -0.12320302 112.11474633 -0.12025452 109.43161011 C-0.12162918 108.46964722 -0.12300385 107.50768433 -0.12442017 106.51657104 C-0.12082489 105.4577774 -0.11722961 104.39898376 -0.11352539 103.30810547 C-0.11367142 102.19590637 -0.11381744 101.08370728 -0.1139679 99.93780518 C-0.1132691 96.2475797 -0.10547824 92.5574042 -0.09765625 88.8671875 C-0.09579195 86.31413806 -0.0943681 83.76108826 -0.09336853 81.20803833 C-0.08993553 75.16613084 -0.08204747 69.12424492 -0.07201904 63.08234608 C-0.06085045 56.20456124 -0.05534557 49.32677555 -0.05032361 42.44898391 C-0.03986466 28.2993126 -0.02226986 14.14965729 0 0 Z " fill="#E5E5E6" transform="translate(664,411)"/>
<path d="M0 0 C0.33 0 0.66 0 1 0 C1.33 26.73 1.66 53.46 2 81 C7.94 81 13.88 81 20 81 C19.97905273 79.68394775 19.95810547 78.36789551 19.93652344 77.01196289 C19.863751 72.09752417 19.81806522 67.18313244 19.78027344 62.26831055 C19.76024254 60.14713513 19.73300975 58.02601435 19.69824219 55.9050293 C19.64934786 52.84410059 19.62694548 49.78390624 19.609375 46.72265625 C19.58872986 45.78478775 19.56808472 44.84691925 19.54681396 43.88063049 C19.54464319 37.41227609 20.9238124 32.68536628 24 27 C24.33 27.66 24.66 28.32 25 29 C24.33693938 30.66810456 23.66975187 32.33457073 23 34 C22.67913053 36.48001369 22.67913053 36.48001369 22.68115234 39.06567383 C22.66128265 40.04631302 22.64141296 41.02695221 22.62094116 42.03730774 C22.60361435 43.60632088 22.60361435 43.60632088 22.5859375 45.20703125 C22.56657135 46.28756271 22.5472052 47.36809418 22.5272522 48.48136902 C22.46757897 51.9249996 22.42111959 55.36866383 22.375 58.8125 C22.33680899 61.15040502 22.2977566 63.48829615 22.2578125 65.82617188 C22.16026982 71.55070802 22.08060252 77.27510002 22 83 C14.74 83 7.48 83 0 83 C0 55.61 0 28.22 0 0 Z " fill="#393939" transform="translate(695,549)"/>
<path d="M0 0 C0.99 0.495 0.99 0.495 2 1 C2 5.95 2 10.9 2 16 C-19.45 16 -40.9 16 -63 16 C-63.33 16.99 -63.66 17.98 -64 19 C-64 17.68 -64 16.36 -64 15 C-61.27521848 13.63760924 -59.13159145 13.88030042 -56.08154297 13.88647461 C-54.21983963 13.88658791 -54.21983963 13.88658791 -52.32052612 13.88670349 C-50.96107951 13.8918105 -49.60163331 13.8970265 -48.2421875 13.90234375 C-46.85499116 13.90420858 -45.46779416 13.90563218 -44.08059692 13.90663147 C-40.42765488 13.91045152 -36.77475252 13.92027745 -33.12182617 13.93133545 C-29.39502499 13.94156056 -25.66821741 13.94613145 -21.94140625 13.95117188 C-14.62758397 13.96190017 -7.3138026 13.97949283 0 14 C0 9.38 0 4.76 0 0 Z " fill="#070707" transform="translate(578,581)"/>
<path d="M0 0 C2 2 2 2 2.5625 4.25 C1.78985487 8.02737617 -0.01642904 9.48542357 -2.984375 11.83203125 C-6.08459418 13.62847608 -8.52558701 13.54500596 -12 13 C-14 11 -14 11 -14.5 8.6875 C-13.74385471 4.62321908 -11.25262633 3.34189095 -8 1 C-5.23749964 -0.38125018 -3.05268901 -0.19079306 0 0 Z " fill="#0F0F10" transform="translate(354,473)"/>
<path d="M0 0 C0.91644287 0.00523682 1.83288574 0.01047363 2.77709961 0.01586914 C3.76645508 0.0190918 4.75581055 0.02231445 5.77514648 0.02563477 C6.81606445 0.03401367 7.85698242 0.04239258 8.92944336 0.05102539 C10.49662109 0.05779297 10.49662109 0.05779297 12.09545898 0.06469727 C14.68600996 0.07652627 17.27644895 0.0930085 19.86694336 0.11352539 C20.52694336 2.42352539 21.18694336 4.73352539 21.86694336 7.11352539 C23.18694336 6.78352539 24.50694336 6.45352539 25.86694336 6.11352539 C24.89165599 7.44969891 23.91161017 8.78240049 22.92944336 10.11352539 C22.1115332 11.22727539 22.1115332 11.22727539 21.27709961 12.36352539 C20.81174805 12.94102539 20.34639648 13.51852539 19.86694336 14.11352539 C19.53694336 14.11352539 19.20694336 14.11352539 18.86694336 14.11352539 C18.86694336 10.15352539 18.86694336 6.19352539 18.86694336 2.11352539 C11.93694336 2.11352539 5.00694336 2.11352539 -2.13305664 2.11352539 C-2.13305664 22.24352539 -2.13305664 42.37352539 -2.13305664 63.11352539 C-2.46305664 63.11352539 -2.79305664 63.11352539 -3.13305664 63.11352539 C-3.15618401 55.04700365 -3.17397373 46.98049567 -3.18486881 38.91394901 C-3.19009678 35.16869502 -3.19719286 31.42346363 -3.20849609 27.67822266 C-3.21932805 24.06670852 -3.22533413 20.45521618 -3.22793388 16.84368706 C-3.22978758 15.4629221 -3.23340713 14.08215839 -3.2387867 12.70140266 C-3.24600111 10.77376587 -3.24646473 8.84610732 -3.24658203 6.91845703 C-3.24880264 5.8192543 -3.25102325 4.72005157 -3.25331116 3.58753967 C-3.0869172 0.16429169 -3.0869172 0.16429169 0 0 Z " fill="#F9F9F9" transform="translate(668.133056640625,408.886474609375)"/>
<path d="M0 0 C5.75 0.875 5.75 0.875 8 2 C9.59678322 2.01610171 11.1945399 1.96535627 12.7890625 1.87890625 C13.73007812 1.83056641 14.67109375 1.78222656 15.640625 1.73242188 C16.62546875 1.67634766 17.6103125 1.62027344 18.625 1.5625 C19.61757813 1.51029297 20.61015625 1.45808594 21.6328125 1.40429688 C24.08884568 1.27441051 26.5444936 1.13943836 29 1 C22.74324417 5.84679411 16.73397204 5.39509436 9 5 C6.07661001 4.60238281 3.80393324 4.00518362 1 3 C0.67 2.01 0.34 1.02 0 0 Z " fill="#1C1C1C" transform="translate(523,629)"/>
<path d="M0 0 C3.62493334 -0.05787784 7.24974857 -0.0935542 10.875 -0.125 C11.90753906 -0.14175781 12.94007813 -0.15851562 14.00390625 -0.17578125 C14.99003906 -0.18222656 15.97617187 -0.18867187 16.9921875 -0.1953125 C18.35899658 -0.21102295 18.35899658 -0.21102295 19.75341797 -0.22705078 C22 0 22 0 24 2 C21.05868109 2.98043964 19.17498335 3.11621202 16.11328125 3.09765625 C15.17548828 3.09443359 14.23769531 3.09121094 13.27148438 3.08789062 C12.29501953 3.07951172 11.31855469 3.07113281 10.3125 3.0625 C8.83040039 3.05573242 8.83040039 3.05573242 7.31835938 3.04882812 C4.87884526 3.03704303 2.43945311 3.02059011 0 3 C0 2.01 0 1.02 0 0 Z " fill="#2A2B2A" transform="translate(295,551)"/>
<path d="M0 0 C0.125 7.75 0.125 7.75 -1 10 C-0.34 10 0.32 10 1 10 C1 17.59 1 25.18 1 33 C0.67 33 0.34 33 0 33 C-0.33 31.35 -0.66 29.7 -1 28 C-1.33 28 -1.66 28 -2 28 C-2.33 19.09 -2.66 10.18 -3 1 C-1 0 -1 0 0 0 Z " fill="#EAEAEA" transform="translate(386,605)"/>
<path d="M0 0 C0.99 0 1.98 0 3 0 C3.02578125 0.60328125 3.0515625 1.2065625 3.078125 1.828125 C3.13484375 2.62734375 3.1915625 3.4265625 3.25 4.25 C3.29640625 5.03890625 3.3428125 5.8278125 3.390625 6.640625 C4.21834463 9.84538561 5.30252975 11.09378769 8 13 C11.07601936 13.05133204 11.07601936 13.05133204 14.25 12.25 C15.32765625 12.02828125 16.4053125 11.8065625 17.515625 11.578125 C18.33546875 11.38734375 19.1553125 11.1965625 20 11 C20 11.99 20 12.98 20 14 C16.16177822 15.80622201 13.23634378 16.51873597 9 16 C4.15263922 13.52879647 1.8445141 11.12365027 0 6 C-0.1875 2.625 -0.1875 2.625 0 0 Z " fill="#1C1C1C" transform="translate(526,385)"/>
<path d="M0 0 C0.9971257 2.99137711 1.09229826 4.81750993 1.02172852 7.93041992 C1.00163223 8.93123093 0.98153595 9.93204193 0.96083069 10.96318054 C0.93379562 12.04138565 0.90676056 13.11959076 0.87890625 14.23046875 C0.85529526 15.33602615 0.83168427 16.44158356 0.80735779 17.5806427 C0.73070304 21.11639183 0.64668612 24.65192295 0.5625 28.1875 C0.50928115 30.58267158 0.45654074 32.97785383 0.40429688 35.37304688 C0.27508539 41.2488332 0.13982681 47.12445723 0 53 C-0.33 53 -0.66 53 -1 53 C-1.19388846 46.25596084 -1.37122632 39.51163143 -1.53710938 32.7668457 C-1.5954779 30.47280039 -1.65762308 28.17884792 -1.72363281 25.88500977 C-1.81790286 22.5862722 -1.89854895 19.28743838 -1.9765625 15.98828125 C-2.00875885 14.96414627 -2.0409552 13.94001129 -2.0741272 12.88484192 C-2.10438492 11.44391426 -2.10438492 11.44391426 -2.13525391 9.97387695 C-2.16856308 8.71145927 -2.16856308 8.71145927 -2.20254517 7.42353821 C-1.97032826 4.64496508 -1.14515339 2.52826508 0 0 Z " fill="#E9E9E9" transform="translate(719,578)"/>
<path d="M0 0 C5.94 0 11.88 0 18 0 C18 0.99 18 1.98 18 3 C15.37438891 3.08074203 12.75124324 3.1403623 10.125 3.1875 C9.00544922 3.22520508 9.00544922 3.22520508 7.86328125 3.26367188 C5.6953125 3.29296875 5.6953125 3.29296875 2 3 C1.34 2.01 0.68 1.02 0 0 Z " fill="#272827" transform="translate(246,391)"/>
<path d="M0 0 C3 2 3 2 3.73046875 4.86328125 C3.88128906 6.00152344 4.03210938 7.13976562 4.1875 8.3125 C4.34605469 9.44300781 4.50460938 10.57351563 4.66796875 11.73828125 C4.95184618 14.5269595 5.06826423 17.20116645 5 20 C2 18 2 18 1.453125 15.90625 C1.38609375 15.1121875 1.3190625 14.318125 1.25 13.5 C1.13398438 12.30890625 1.13398438 12.30890625 1.015625 11.09375 C1 9 1 9 2 7 C1.34 7 0.68 7 0 7 C0 4.69 0 2.38 0 0 Z " fill="#1D1D1D" transform="translate(141,545)"/>
<path d="M0 0 C0.66 0 1.32 0 2 0 C2 5.94 2 11.88 2 18 C1.67 17.01 1.34 16.02 1 15 C0.34 15 -0.32 15 -1 15 C-1.02703381 13.06257659 -1.04641125 11.12504521 -1.0625 9.1875 C-1.07410156 8.10855469 -1.08570313 7.02960938 -1.09765625 5.91796875 C-1 3 -1 3 0 0 Z " fill="#1A1A1A" transform="translate(784,443)"/>
<path d="M0 0 C1.125 3.75 1.125 3.75 0 6 C-0.15067214 7.4465242 -0.24861036 8.8987934 -0.31640625 10.3515625 C-0.35830078 11.20234375 -0.40019531 12.053125 -0.44335938 12.9296875 C-0.48267578 13.81914063 -0.52199219 14.70859375 -0.5625 15.625 C-0.60568359 16.5221875 -0.64886719 17.419375 -0.69335938 18.34375 C-0.79956861 20.56234283 -0.90161194 22.7810488 -1 25 C-1.33 25 -1.66 25 -2 25 C-2.33 21.37 -2.66 17.74 -3 14 C-3.33 14 -3.66 14 -4 14 C-3.67 10.7 -3.34 7.4 -3 4 C-2.01 3.67 -1.02 3.34 0 3 C0 2.01 0 1.02 0 0 Z " fill="#1B1B1B" transform="translate(498,574)"/>
<path d="M0 0 C0 0.33 0 0.66 0 1 C-6.27 1 -12.54 1 -19 1 C-19.33 0.34 -19.66 -0.32 -20 -1 C-14.0551837 -3.97240815 -6.04334172 -1.79061977 0 0 Z " fill="#1E1E1F" transform="translate(550,548)"/>
<path d="M0 0 C0.33 0 0.66 0 1 0 C1 5.94 1 11.88 1 18 C0.01 17.67 -0.98 17.34 -2 17 C-2 12.71 -2 8.42 -2 4 C-1.34 4 -0.68 4 0 4 C0 2.68 0 1.36 0 0 Z " fill="#ECECEC" transform="translate(193,471)"/>
<path d="M0 0 C0.33 0.99 0.66 1.98 1 3 C-0.58941406 3.09087891 -0.58941406 3.09087891 -2.2109375 3.18359375 C-3.59897221 3.26800127 -4.98699232 3.35264917 -6.375 3.4375 C-7.07367187 3.47681641 -7.77234375 3.51613281 -8.4921875 3.55664062 C-12.37360492 3.74280134 -12.37360492 3.74280134 -16 5 C-16.66 4.34 -17.32 3.68 -18 3 C-11.75690073 0.22528921 -6.80203375 -0.37634203 0 0 Z " fill="#252626" transform="translate(744,547)"/>
<path d="M0 0 C0.99 0 1.98 0 3 0 C3 3.96 3 7.92 3 12 C2.34 12 1.68 12 1 12 C1 14.64 1 17.28 1 20 C0.01 20.33 -0.98 20.66 -2 21 C-1.01 10.605 -1.01 10.605 0 0 Z " fill="#E3E3E3" transform="translate(755,447)"/>
<path d="M0 0 C0.66 0.33 1.32 0.66 2 1 C0.51979231 5.91302978 -0.80426678 9.93270318 -4 14 C-4.71433121 16.64934822 -4.71433121 16.64934822 -5 19 C-5.66 18.67 -6.32 18.34 -7 18 C-5.06375702 11.79522136 -2.74390859 5.89174281 0 0 Z " fill="#EAEAEA" transform="translate(158,454)"/>
<path d="M0 0 C5.28 0.66 10.56 1.32 16 2 C15.67 2.99 15.34 3.98 15 5 C13.39592672 5.02708567 11.7917215 5.04643483 10.1875 5.0625 C8.84751953 5.07990234 8.84751953 5.07990234 7.48046875 5.09765625 C5 5 5 5 2 4 C1.34 2.68 0.68 1.36 0 0 Z " fill="#E6E5E6" transform="translate(624,610)"/>
<path d="M0 0 C0 0.33 0 0.66 0 1 C2.64 1.33 5.28 1.66 8 2 C8 2.33 8 2.66 8 3 C-1.405 3.495 -1.405 3.495 -11 4 C-10.67 3.01 -10.34 2.02 -10 1 C-6.76421296 -0.31828361 -3.44785988 -0.07836045 0 0 Z " fill="#1C1C1D" transform="translate(715,409)"/>
<path d="M0 0 C1.485 0.99 1.485 0.99 3 2 C3.3984375 4.6796875 3.3984375 4.6796875 3.375 7.875 C3.38273438 8.92429687 3.39046875 9.97359375 3.3984375 11.0546875 C3 14 3 14 0 18 C0 12.06 0 6.12 0 0 Z " fill="#1B1B1B" transform="translate(222,608)"/>
<path d="M0 0 C-6.57793349 3.22184497 -11.76751173 3.75333049 -19 2 C-15.97758814 0.24438491 -13.91567342 -0.20963086 -10.4375 -0.0625 C-6.57162586 0.08744116 -3.65354535 -1.21784845 0 0 Z " fill="#E7E8E8" transform="translate(819,474)"/>
<path d="M0 0 C0.99 0 1.98 0 3 0 C3.05395478 1.62463842 3.09277195 3.24978541 3.125 4.875 C3.14820313 5.77992188 3.17140625 6.68484375 3.1953125 7.6171875 C3 10 3 10 1 12 C0 11 0 11 -0.09765625 8.49609375 C-0.08605469 7.48675781 -0.07445312 6.47742188 -0.0625 5.4375 C-0.05347656 4.42558594 -0.04445313 3.41367187 -0.03515625 2.37109375 C-0.02355469 1.58863281 -0.01195312 0.80617188 0 0 Z " fill="#E6E6E6" transform="translate(828,446)"/>
<path d="M0 0 C0 4.62 0 9.24 0 14 C-0.99 14.33 -1.98 14.66 -3 15 C-3 10.38 -3 5.76 -3 1 C-1 0 -1 0 0 0 Z " fill="#E6E6E5" transform="translate(216,473)"/>
<path d="M0 0 C0.33 0 0.66 0 1 0 C1.05402274 2.10388569 1.09280256 4.20816714 1.125 6.3125 C1.14820313 7.48425781 1.17140625 8.65601563 1.1953125 9.86328125 C1 13 1 13 -1 16 C-2.08360869 9.93179132 -1.79074734 5.89893243 0 0 Z " fill="#E5E5E5" transform="translate(632,446)"/>
<path d="M0 0 C3.96 0 7.92 0 12 0 C12.33 0.99 12.66 1.98 13 3 C9.04 3 5.08 3 1 3 C0.67 2.01 0.34 1.02 0 0 Z " fill="#222222" transform="translate(799,547)"/>
<path d="M0 0 C0.99 0 1.98 0 3 0 C3.19294408 4.82360189 2.75747614 8.49646738 1 13 C0.34 12.34 -0.32 11.68 -1 11 C-0.9765625 8.3984375 -0.9765625 8.3984375 -0.625 5.375 C-0.51414062 4.37210937 -0.40328125 3.36921875 -0.2890625 2.3359375 C-0.19367187 1.56507813 -0.09828125 0.79421875 0 0 Z " fill="#1A1A1B" transform="translate(733,450)"/>
<path d="M0 0 C3 1 3 1 4 3 C4.23076923 8.53846154 4.23076923 8.53846154 3 11 C2.34 11 1.68 11 1 11 C0.67 7.37 0.34 3.74 0 0 Z " fill="#1A1A1B" transform="translate(271,427)"/>
<path d="M0 0 C2.12574678 3.5429113 2.47433223 6.94484863 3 11 C3.33 11.66 3.66 12.32 4 13 C3.01 13 2.02 13 1 13 C-1.32845886 9.36178302 -1.23553948 6.23971058 -1 2 C-0.67 1.34 -0.34 0.68 0 0 Z " fill="#1C1C1C" transform="translate(321,417)"/>
<path d="M0 0 C4.62 0.99 9.24 1.98 14 3 C9.43112384 5.28443808 7.86213388 5.06082921 3 4 C2.01 3.34 1.02 2.68 0 2 C0 1.34 0 0.68 0 0 Z " fill="#E9E9E9" transform="translate(235,509)"/>
<path d="M0 0 C-0.33 0.66 -0.66 1.32 -1 2 C-1.721875 1.979375 -2.44375 1.95875 -3.1875 1.9375 C-5.91925138 1.99820559 -8.34256091 2.39258535 -11 3 C-11 2.01 -11 1.02 -11 0 C-3.57142857 -1.28571429 -3.57142857 -1.28571429 0 0 Z " fill="#E5E6E6" transform="translate(555,633)"/>
<path d="M0 0 C0.99 0 1.98 0 3 0 C3 5.61 3 11.22 3 17 C2.67 17 2.34 17 2 17 C1.90912109 15.93458984 1.90912109 15.93458984 1.81640625 14.84765625 C1.73261719 13.92855469 1.64882813 13.00945313 1.5625 12.0625 C1.48128906 11.14597656 1.40007813 10.22945312 1.31640625 9.28515625 C1.23955024 7.03840268 1.23955024 7.03840268 0 6 C-0.04080783 4.00041636 -0.04254356 1.99954746 0 0 Z " fill="#1E1E1E" transform="translate(589,582)"/>
<path d="M0 0 C0.33 0 0.66 0 1 0 C1.33 2.64 1.66 5.28 2 8 C3.32 7.67 4.64 7.34 6 7 C5.34 8.32 4.68 9.64 4 11 C2.68 11 1.36 11 0 11 C0 7.37 0 3.74 0 0 Z " fill="#393839" transform="translate(716,549)"/>
<path d="M0 0 C1.48484412 0.39595843 2.9628831 0.81750706 4.4375 1.25 C5.26121094 1.48203125 6.08492187 1.7140625 6.93359375 1.953125 C7.61550781 2.29859375 8.29742188 2.6440625 9 3 C9.33 4.32 9.66 5.64 10 7 C5.05 5.02 5.05 5.02 0 3 C0 2.01 0 1.02 0 0 Z " fill="#ECECEC" transform="translate(815,546)"/>
<path d="M0 0 C3.63 0.33 7.26 0.66 11 1 C11.33 1.99 11.66 2.98 12 4 C3.42857143 3 3.42857143 3 0 2 C0 1.34 0 0.68 0 0 Z " fill="#EAEAEA" transform="translate(345,440)"/>
<path d="M0 0 C-2.06756277 2.7972908 -3.14440371 3.02692273 -6.6875 3.6875 C-7.780625 3.790625 -8.87375 3.89375 -10 4 C-10 3.01 -10 2.02 -10 1 C-8.71073008 0.63720544 -7.41846728 0.28503302 -6.125 -0.0625 C-5.40570312 -0.25972656 -4.68640625 -0.45695312 -3.9453125 -0.66015625 C-2 -1 -2 -1 0 0 Z " fill="#E0E0E0" transform="translate(731,493)"/>
<path d="M0 0 C4.07201308 2.8614146 6.09821252 5.39567242 8 10 C8 10.66 8 11.32 8 12 C7.34 12 6.68 12 6 12 C4.4921875 9.8828125 4.4921875 9.8828125 2.875 7.125 C2.33617187 6.22007812 1.79734375 5.31515625 1.2421875 4.3828125 C0 2 0 2 0 0 Z " fill="#ECECEB" transform="translate(745,421)"/>
<path d="M0 0 C2 2 2 2 2.125 5.625 C2.08375 6.73875 2.0425 7.8525 2 9 C1.01 9 0.02 9 -1 9 C-0.67 6.03 -0.34 3.06 0 0 Z " fill="#E5E5E5" transform="translate(317,596)"/>
<path d="M0 0 C3.17850137 0.9200925 4.65177716 1.41435249 6.375 4.3125 C7.06313804 7.27149356 6.82756731 9.10351441 6 12 C5.67 12 5.34 12 5 12 C4.34 8.7 3.68 5.4 3 2 C2.01 1.67 1.02 1.34 0 1 C0 0.67 0 0.34 0 0 Z " fill="#EBEAEA" transform="translate(219,598)"/>
<path d="M0 0 C1.65 0 3.3 0 5 0 C3 3 3 3 0.8359375 3.73046875 C-0.38222656 3.95669922 -0.38222656 3.95669922 -1.625 4.1875 C-2.85089844 4.42533203 -2.85089844 4.42533203 -4.1015625 4.66796875 C-5.04128906 4.83232422 -5.04128906 4.83232422 -6 5 C-6 4.34 -6 3.68 -6 3 C-5.34 3 -4.68 3 -4 3 C-4 2.34 -4 1.68 -4 1 C-2.68 1.33 -1.36 1.66 0 2 C0 1.34 0 0.68 0 0 Z " fill="#E7E8E8" transform="translate(622,545)"/>
<path d="M0 0 C1.98 0 3.96 0 6 0 C6 2.31 6 4.62 6 7 C5.67 5.68 5.34 4.36 5 3 C3.35 3 1.7 3 0 3 C0 2.01 0 1.02 0 0 Z " fill="#1D1E1E" transform="translate(348,473)"/>
<path d="M0 0 C0.33 1.32 0.66 2.64 1 4 C0.34 4 -0.32 4 -1 4 C-1 6.31 -1 8.62 -1 11 C-1.99 11 -2.98 11 -4 11 C-3.48964169 6.6109185 -2.47785723 3.66291938 0 0 Z " fill="#E4E4E4" transform="translate(691,437)"/>
<path d="M0 0 C2.45823172 3.68734758 3.01242616 6.69699971 4 11 C3.34 11 2.68 11 2 11 C-1.07692308 4.6 -1.07692308 4.6 -0.6875 1.5625 C-0.460625 1.046875 -0.23375 0.53125 0 0 Z " fill="#E5E5E5" transform="translate(145,629)"/>
<path d="M0 0 C0.99 0.33 1.98 0.66 3 1 C3.33 3.97 3.66 6.94 4 10 C3.34 10 2.68 10 2 10 C2 8.02 2 6.04 2 4 C1.34 4 0.68 4 0 4 C0 2.68 0 1.36 0 0 Z " fill="#E4E4E4" transform="translate(360,600)"/>
<path d="M0 0 C0.8971875 0.5259375 0.8971875 0.5259375 1.8125 1.0625 C-1.5894487 3.15600689 -4.24022412 3.24192163 -8.1875 3.0625 C-7.1975 2.7325 -6.2075 2.4025 -5.1875 2.0625 C-5.1875 1.4025 -5.1875 0.7425 -5.1875 0.0625 C-2.1875 -0.9375 -2.1875 -0.9375 0 0 Z " fill="#1A1A1A" transform="translate(817.1875,475.9375)"/>
<path d="M0 0 C0.99 0.33 1.98 0.66 3 1 C3.73046875 2.84765625 3.73046875 2.84765625 4.1875 5.0625 C4.34605469 5.79597656 4.50460937 6.52945312 4.66796875 7.28515625 C4.83232422 8.13400391 4.83232422 8.13400391 5 9 C3.0625 8.4375 3.0625 8.4375 1 7 C0.25 3.375 0.25 3.375 0 0 Z " fill="#E6E6E6" transform="translate(762,460)"/>
<path d="M0 0 C0.66 0.33 1.32 0.66 2 1 C1.01 2.98 0.02 4.96 -1 7 C-1.99 7 -2.98 7 -4 7 C-2.92598892 4.08482708 -2.22189824 2.22189824 0 0 Z " fill="#0D0E0D" transform="translate(283,367)"/>
<path d="M0 0 C2.01136276 2.55991624 3.62845496 5.04590299 5 8 C2.5625 7.3125 2.5625 7.3125 0 6 C-0.875 3.4375 -0.875 3.4375 -1 1 C-0.67 0.67 -0.34 0.34 0 0 Z " fill="#E6E6E6" transform="translate(497,608)"/>
<path d="M0 0 C0.66 0.33 1.32 0.66 2 1 C2 1.66 2 2.32 2 3 C-0.31 3.66 -2.62 4.32 -5 5 C-5 4.01 -5 3.02 -5 2 C-2.625 0.9375 -2.625 0.9375 0 0 Z " fill="#1B1B1B" transform="translate(630,489)"/>
<path d="M0 0 C0.66 0.33 1.32 0.66 2 1 C2 3.97 2 6.94 2 10 C-0.05619793 7.68677733 -0.95899829 6.44076838 -1.25 3.3125 C-1 1 -1 1 0 0 Z " fill="#E7E7E7" transform="translate(587,445)"/>
<path d="M0 0 C1.32 0.33 2.64 0.66 4 1 C3.319375 1.61875 3.319375 1.61875 2.625 2.25 C0.94049626 4.06408095 0.00734029 5.75285627 -1 8 C-1.93065133 5.39417629 -2.14917407 4.35801776 -1.0625 1.75 C-0.711875 1.1725 -0.36125 0.595 0 0 Z " fill="#1D1D1D" transform="translate(142,446)"/>
<path d="M0 0 C2.31 0 4.62 0 7 0 C7.33 0.99 7.66 1.98 8 3 C5.36 2.67 2.72 2.34 0 2 C0 1.34 0 0.68 0 0 Z " fill="#1A191A" transform="translate(279,549)"/>
<path d="M0 0 C0.66 0 1.32 0 2 0 C3.80411967 2.75924185 4.0127245 3.88972103 3.625 7.25 C3.41875 8.1575 3.2125 9.065 3 10 C2.67 10 2.34 10 2 10 C1.34 6.7 0.68 3.4 0 0 Z " fill="#E3E3E3" transform="translate(652,434)"/>
<path d="M0 0 C1.22589844 0.29197266 1.22589844 0.29197266 2.4765625 0.58984375 C3.41628906 0.82380859 3.41628906 0.82380859 4.375 1.0625 C4.375 1.3925 4.375 1.7225 4.375 2.0625 C2.91707116 2.11649736 1.45857288 2.15529177 0 2.1875 C-0.81210937 2.21070313 -1.62421875 2.23390625 -2.4609375 2.2578125 C-4.625 2.0625 -4.625 2.0625 -6.625 0.0625 C-3.99249612 -1.25375194 -2.82320944 -0.68563658 0 0 Z " fill="#1C1C1D" transform="translate(262.625,421.9375)"/>
<path d="M0 0 C2.25 -0.25 2.25 -0.25 5 0 C7.3125 2 7.3125 2 9 4 C8.67 4.66 8.34 5.32 8 6 C6.66402348 5.19185349 5.331275 4.37836819 4 3.5625 C3.2575 3.11003906 2.515 2.65757812 1.75 2.19140625 C1.1725 1.79824219 0.595 1.40507812 0 1 C0 0.67 0 0.34 0 0 Z " fill="#E7E7E7" transform="translate(826,411)"/>
<path d="M0 0 C0 0.66 0 1.32 0 2 C-3.375 2.125 -3.375 2.125 -7 2 C-7.66 1.34 -8.32 0.68 -9 0 C-5.67465243 -1.10844919 -3.37817425 -0.84454356 0 0 Z " fill="#222222" transform="translate(803,410)"/>
<path d="M0 0 C0.99 0 1.98 0 3 0 C3.66 1.65 4.32 3.3 5 5 C4.34 5.66 3.68 6.32 3 7 C0 2.25 0 2.25 0 0 Z " fill="#191919" transform="translate(514,601)"/>
<path d="M0 0 C2 2 2 2 2.125 5.625 C2.08375 6.73875 2.0425 7.8525 2 9 C1.01 8.34 0.02 7.68 -1 7 C-0.67 4.69 -0.34 2.38 0 0 Z " fill="#1A1A1A" transform="translate(126,544)"/>
<path d="M0 0 C2.64 0.33 5.28 0.66 8 1 C8 1.99 8 2.98 8 4 C5.69 3.67 3.38 3.34 1 3 C0.67 2.01 0.34 1.02 0 0 Z " fill="#1C1C1D" transform="translate(343,457)"/>
<path d="M0 0 C0.66 0 1.32 0 2 0 C2.33 0.66 2.66 1.32 3 2 C4.97888961 2.72693904 6.97954558 3.39816251 9 4 C6.83032311 4.95465783 5.43671207 5.14401212 3.17578125 4.3984375 C1.4315257 3.64129615 -0.28627131 2.82390802 -2 2 C-1.34 1.34 -0.68 0.68 0 0 Z " fill="#1A1B1C" transform="translate(341,440)"/>
<path d="M0 0 C0.78375 0.04125 1.5675 0.0825 2.375 0.125 C2.375 0.785 2.375 1.445 2.375 2.125 C3.035 2.125 3.695 2.125 4.375 2.125 C4.045 2.785 3.715 3.445 3.375 4.125 C0.735 3.465 -1.905 2.805 -4.625 2.125 C-2.625 0.125 -2.625 0.125 0 0 Z " fill="#E4E4E4" transform="translate(625.625,407.875)"/>
<path d="M0 0 C0.99 0.33 1.98 0.66 3 1 C3 1.66 3 2.32 3 3 C3.99 3 4.98 3 6 3 C5.67 3.99 5.34 4.98 5 6 C3.02 4.68 1.04 3.36 -1 2 C-0.67 1.34 -0.34 0.68 0 0 Z " fill="#191A1A" transform="translate(285,398)"/>
</svg>
