<?xml version="1.0" encoding="UTF-8"?>
<svg version="1.1" xmlns="http://www.w3.org/2000/svg" width="1024" height="1024">
<path d="M0 0 C3.45011136 3.76039975 8.82421875 9.67461068 8.82421875 14.98828125 C9.48421875 14.32828125 10.14421875 13.66828125 10.82421875 12.98828125 C12.64453125 12.6796875 12.64453125 12.6796875 14.94921875 12.55078125 C19.33771724 12.21606526 23.41192244 11.41020336 27.69921875 10.42578125 C47.01019706 6.47186616 66.8244262 8.6187191 85.82421875 12.98828125 C86.48421875 12.98828125 87.14421875 12.98828125 87.82421875 12.98828125 C87.88609375 11.97765625 87.94796875 10.96703125 88.01171875 9.92578125 C88.77713938 4.74608549 91.37220585 0.92070094 95.46484375 -2.3046875 C100.97912415 -5.74490298 106.10021323 -6.49306651 112.38671875 -5.32421875 C118.05050673 -3.86011029 121.61728475 -1.64271065 125.13671875 3.11328125 C127.81265543 8.40870026 128.62511315 13.90998323 127.125 19.67578125 C125.37548834 24.3227055 123.3772988 28.4352012 119.82421875 31.98828125 C119.16421875 31.98828125 118.50421875 31.98828125 117.82421875 31.98828125 C118.40429688 32.66632813 118.984375 33.344375 119.58203125 34.04296875 C129.99677667 46.4512958 135.70558168 58.5613744 140.07446289 74.01196289 C141.13963085 77.76880985 142.28338405 81.39064427 143.82421875 84.98828125 C144.48421875 84.98828125 145.14421875 84.98828125 145.82421875 84.98828125 C145.82421875 85.64828125 145.82421875 86.30828125 145.82421875 86.98828125 C146.88576172 87.37113281 146.88576172 87.37113281 147.96875 87.76171875 C165.7342133 95.39284799 180.15457039 110.19589961 188.07421875 127.61328125 C193.26137628 141.56194015 193.02814468 157.56078908 187.57421875 171.36328125 C183.99757446 179.09344795 179.8819918 186.21270697 174.12109375 192.515625 C172.60848324 194.16714018 172.60848324 194.16714018 170.82421875 196.98828125 C169.23046875 198.34765625 169.23046875 198.34765625 167.32421875 199.73828125 C166.62296875 200.25132812 165.92171875 200.764375 165.19921875 201.29296875 C161.09555406 204.2222294 156.96899123 207.11751671 152.82421875 209.98828125 C153.8173296 214.95383548 155.03923758 219.74919655 156.55078125 224.58447266 C171.38887382 272.43955586 171.38887382 272.43955586 164.38671875 289.48828125 C156.66269235 297.02391676 146.96896268 296.63964991 136.79956055 296.7277832 C135.20417051 296.75523889 133.60880353 296.78406403 132.01346111 296.81416035 C126.95055193 296.90173103 121.88768839 296.94755874 116.82421875 296.98828125 C115.19083697 297.00350448 113.55745606 297.01882182 111.92407608 297.03423691 C100.92959204 297.13187602 89.93541162 297.1539141 78.94054627 297.15553832 C76.17234943 297.15626213 73.4041572 297.15842003 70.63596153 297.16103554 C60.93853832 297.17017708 51.24112856 297.1743824 41.54370117 297.17358398 C32.55561936 297.17297752 23.56759644 297.183668 14.57952958 297.19932765 C6.79018972 297.2124081 -0.99913078 297.21776808 -8.78848153 297.21712857 C-13.41102831 297.21687491 -18.03352173 297.21965712 -22.65605736 297.23030663 C-26.97798084 297.24000298 -31.29979977 297.24005638 -35.62172699 297.23278999 C-37.19989742 297.23174799 -38.77807448 297.23408411 -40.3562336 297.24015045 C-61.71545309 297.31692487 -61.71545309 297.31692487 -69.17578125 290.98828125 C-97.00357296 250.08897986 -102.7721228 182.28637096 -93.96142578 134.96948242 C-90.65805553 118.51910766 -85.23571656 103.11615361 -77.37646484 88.29516602 C-76.96090332 87.51069092 -76.5453418 86.72621582 -76.1171875 85.91796875 C-75.74279541 85.22944824 -75.36840332 84.54092773 -74.98266602 83.83154297 C-73.97527636 81.86559976 -73.97527636 81.86559976 -74.17578125 78.98828125 C-73.18578125 78.98828125 -72.19578125 78.98828125 -71.17578125 78.98828125 C-70.93730469 78.28832031 -70.69882813 77.58835937 -70.453125 76.8671875 C-64.45232246 63.34244295 -49.66031804 48.88823539 -38.17578125 39.98828125 C-37.51578125 39.98828125 -36.85578125 39.98828125 -36.17578125 39.98828125 C-36.62050781 38.81652344 -37.06523437 37.64476562 -37.5234375 36.4375 C-41.09322179 26.68424657 -43.96704981 18.71038105 -40.2890625 8.53515625 C-37.05534096 1.68193587 -31.93733474 -2.07437782 -25.015625 -4.890625 C-16.45350089 -7.36136499 -6.84109352 -5.7797918 0 0 Z M-20.17578125 15.98828125 C-21.59829712 18.83331299 -21.43250035 20.82082063 -21.17578125 23.98828125 C-19.82239999 27.24154385 -19.82239999 27.24154385 -17.92578125 30.42578125 C-17.29027344 31.55628906 -16.65476563 32.68679688 -16 33.8515625 C-14.94556656 35.66464612 -13.88763409 37.47572328 -12.8203125 39.28125 C-10.17578125 43.75881374 -10.17578125 43.75881374 -10.17578125 46.98828125 C-11.7578125 48.3125 -11.7578125 48.3125 -13.98828125 49.67578125 C-44.28600588 68.88664135 -63.68771165 97.9503809 -72.07421875 132.765625 C-77.12512459 155.51214827 -77.10179882 178.00141393 -74.17578125 200.98828125 C-74.0792627 201.76107422 -73.98274414 202.53386719 -73.88330078 203.33007812 C-71.35092682 222.90711688 -66.10364792 241.74201033 -59.86328125 260.42578125 C-59.6387326 261.09823883 -59.41418396 261.77069641 -59.18283081 262.46353149 C-57.48954803 269.19068182 -57.48954803 269.19068182 -54.17578125 274.98828125 C-51.68877453 275.03616586 -49.22401318 275.03077239 -46.73828125 274.98828125 C-42.26123006 274.9451384 -37.87416844 274.91119318 -33.42578125 275.48828125 C-28.24406682 276.1104425 -23.07514478 276.10211696 -17.86328125 276.11328125 C-16.99026367 276.11779297 -16.11724609 276.12230469 -15.21777344 276.12695312 C-11.07630624 276.1173627 -7.21342188 276.03723531 -3.17578125 274.98828125 C-2.75969701 270.74422198 -2.60175068 268.71426108 -5.30078125 265.30078125 C-11.21906123 260.54042562 -16.88340167 257.74972671 -23.9609375 255.27734375 C-28.83933034 253.45894481 -28.83933034 253.45894481 -30.60546875 250.98828125 C-31.42039496 248.13045784 -31.54535794 245.94489475 -31.17578125 242.98828125 C-29.30868215 240.68552569 -27.81930384 239.31004254 -25.17578125 237.98828125 C-13.73946773 237.0508785 -3.51162218 240.64384694 5.44921875 247.7421875 C13.57825915 255.43001354 14.88121736 263.95202603 17.82421875 274.98828125 C31.02421875 274.98828125 44.22421875 274.98828125 57.82421875 274.98828125 C59.28272034 269.88598271 59.28272034 269.88598271 60.71875 264.77734375 C63.64801125 254.68074116 66.96358926 246.01940954 75.69921875 239.61328125 C78.98388322 238.64720346 81.53223605 239.21017625 84.82421875 239.98828125 C87.14862775 241.53788725 87.69051041 242.6444598 88.69921875 245.23828125 C88.9076522 249.82381716 86.6924571 253.37156156 84.578125 257.30859375 C84.14371094 258.13101563 83.70929688 258.9534375 83.26171875 259.80078125 C82.84792969 260.54972656 82.43414062 261.29867187 82.0078125 262.0703125 C80.3408593 266.1799298 79.69395981 270.63957595 78.82421875 274.98828125 C111.49421875 275.48328125 111.49421875 275.48328125 144.82421875 275.98828125 C144.49421875 272.35828125 144.16421875 268.72828125 143.82421875 264.98828125 C143.16421875 264.98828125 142.50421875 264.98828125 141.82421875 264.98828125 C142.02015625 264.01117187 142.21609375 263.0340625 142.41796875 262.02734375 C143.0427901 257.57549162 142.30140411 253.7143228 141.32421875 249.36328125 C141.14987305 248.55656982 140.97552734 247.7498584 140.79589844 246.91870117 C138.54849794 237.049969 135.21586591 227.51263275 131.82421875 217.98828125 C130.99398193 218.12459961 130.99398193 218.12459961 130.14697266 218.26367188 C127.58229955 218.67999758 125.01584436 219.08417424 122.44921875 219.48828125 C121.57910156 219.63136719 120.70898438 219.77445313 119.8125 219.921875 C92.96113388 224.09875417 68.04591819 215.55104545 45.82421875 200.98828125 C43.4516191 199.44289964 41.07639811 197.90160831 38.69921875 196.36328125 C37.82728882 195.79903442 37.82728882 195.79903442 36.93774414 195.22338867 C28.00264014 188.81765805 28.00264014 188.81765805 17.82421875 185.98828125 C17.82421875 185.32828125 17.82421875 184.66828125 17.82421875 183.98828125 C15.97475516 182.34751975 15.97475516 182.34751975 13.63671875 180.67578125 C10.89450414 178.61373918 8.31012537 176.60494578 5.94921875 174.11328125 C3.9267052 171.7739914 3.9267052 171.7739914 0.82421875 170.98828125 C0.13381301 169.33130746 -0.52884475 167.66270515 -1.17578125 165.98828125 C-2.08650391 164.89966797 -2.08650391 164.89966797 -3.015625 163.7890625 C-5.54912669 160.50421492 -7.15951009 157.21496701 -8.80078125 153.42578125 C-9.10636963 152.72122803 -9.41195801 152.0166748 -9.72680664 151.29077148 C-15.67158088 137.03397803 -15.33236305 123.35304484 -10.17578125 108.98828125 C0.77918594 107.41416946 0.77918594 107.41416946 4.82421875 109.98828125 C6.69921875 111.55078125 6.69921875 111.55078125 7.82421875 113.98828125 C7.80915939 117.73806228 7.13063688 121.40904933 6.41796875 125.08203125 C4.66780263 135.74213399 7.82332596 145.87336188 13.9453125 154.58984375 C19.38817493 161.53769724 25.16550172 165.68147091 32.82421875 169.98828125 C35.66441288 171.62242399 38.49553378 173.27180856 41.32421875 174.92578125 C42.06833008 175.35979248 42.81244141 175.79380371 43.57910156 176.2409668 C47.498133 178.54701927 51.27418239 180.92767776 54.94921875 183.61328125 C67.93048133 192.91067201 84.57815284 201.09940288 100.87109375 201.12109375 C102.26134766 201.12302734 102.26134766 201.12302734 103.6796875 201.125 C105.11248047 201.11919922 105.11248047 201.11919922 106.57421875 201.11328125 C107.54488281 201.11714844 108.51554688 201.12101563 109.515625 201.125 C110.43730469 201.12371094 111.35898437 201.12242187 112.30859375 201.12109375 C113.15131836 201.11996582 113.99404297 201.11883789 114.86230469 201.11767578 C116.82769393 201.20448574 116.82769393 201.20448574 117.82421875 199.98828125 C119.12359375 199.88515625 120.42296875 199.78203125 121.76171875 199.67578125 C127.27155521 199.10129593 131.83020936 197.31982178 136.82421875 194.98828125 C137.70078125 194.58867188 138.57734375 194.1890625 139.48046875 193.77734375 C153.37166928 186.87166073 164.0695325 175.61148068 169.07421875 160.84765625 C170.26756516 156.29802306 170.86764428 151.69560881 170.82421875 146.98828125 C170.49421875 146.65828125 170.16421875 146.32828125 169.82421875 145.98828125 C169.74325072 144.53085662 169.68504101 143.07215318 169.63671875 141.61328125 C168.60313485 130.79921687 161.86005292 122.79696833 153.82421875 115.98828125 C148.37967715 111.52615997 148.37967715 111.52615997 141.82421875 109.98828125 C141.82421875 109.32828125 141.82421875 108.66828125 141.82421875 107.98828125 C139.83137737 106.64427195 137.83002204 105.31286833 135.82421875 103.98828125 C125.79996958 94.966457 120.93529806 84.54064317 117.7578125 71.69921875 C114.04680144 57.39585161 105.76984699 46.94134794 93.109375 39.36328125 C72.4320881 28.26138224 46.31247772 27.01563714 23.82421875 32.98828125 C16.34465378 35.25112638 9.06385118 38.05594951 1.82421875 40.98828125 C1.60507813 40.35148437 1.3859375 39.7146875 1.16015625 39.05859375 C-0.7092588 34.76221881 -3.11384949 30.85856674 -5.55078125 26.86328125 C-6.03289062 26.05246094 -6.515 25.24164063 -7.01171875 24.40625 C-7.48609375 23.62636719 -7.96046875 22.84648437 -8.44921875 22.04296875 C-8.87638184 21.33640137 -9.30354492 20.62983398 -9.74365234 19.90185547 C-11.34249629 17.76552086 -12.93055863 16.42022063 -15.17578125 14.98828125 C-17.38659976 14.88287199 -17.38659976 14.88287199 -20.17578125 15.98828125 Z " fill="#020202" transform="translate(234.17578125,355.01171875)"/>
<path d="M0 0 C0.99 0.33 1.98 0.66 3 1 C3 16.84 3 32.68 3 49 C13.89 49 24.78 49 36 49 C36.495 48.01 36.495 48.01 37 47 C37 47.66 37 48.32 37 49 C38.4800841 48.88637738 39.95910074 48.75877092 41.4375 48.625 C42.26121094 48.55539062 43.08492188 48.48578125 43.93359375 48.4140625 C44.95646484 48.20910156 44.95646484 48.20910156 46 48 C47.16425976 45.67148048 47.15457992 44.23719816 47.20532227 41.64208984 C47.22526749 40.74130707 47.24521271 39.84052429 47.26576233 38.91244507 C47.28247482 37.93844757 47.29918732 36.96445007 47.31640625 35.9609375 C47.3475779 34.46694931 47.3475779 34.46694931 47.37937927 32.94277954 C47.44489042 29.75359146 47.50376704 26.56431942 47.5625 23.375 C47.60568373 21.21613707 47.64929797 19.0572827 47.69335938 16.8984375 C47.80138549 11.59904322 47.9004474 6.29958743 48 1 C55.92 1.33 63.84 1.66 72 2 C72 40.61 72 79.22 72 119 C64.08 119 56.16 119 48 119 C48 103.16 48 87.32 48 71 C33.15 71 18.3 71 3 71 C3.3674322 83.80390988 3.3674322 83.80390988 3.74829102 96.60742188 C3.79231069 98.22785158 3.8358786 99.84829365 3.87890625 101.46875 C3.90561401 102.29149414 3.93232178 103.11423828 3.95983887 103.96191406 C4.08903442 109.09304145 3.75719006 113.92147273 3 119 C-0.79160297 119.05786668 -4.58309311 119.09355054 -8.375 119.125 C-9.45523437 119.14175781 -10.53546875 119.15851563 -11.6484375 119.17578125 C-12.6796875 119.18222656 -13.7109375 119.18867188 -14.7734375 119.1953125 C-15.72653809 119.20578613 -16.67963867 119.21625977 -17.66162109 119.22705078 C-20 119 -20 119 -22 117 C-21.98095703 115.18847656 -21.98095703 115.18847656 -21.6328125 112.890625 C-20.82119928 106.23012947 -20.84972463 99.60034427 -20.86962891 92.90332031 C-20.87502453 90.74016424 -20.86963483 88.57721258 -20.86328125 86.4140625 C-20.86394155 85.02083288 -20.86522171 83.62760339 -20.8671875 82.234375 C-20.86831543 80.98881836 -20.86944336 79.74326172 -20.87060547 78.45996094 C-20.99206526 75.2121719 -21.44253266 72.19564234 -22 69 C-21.94023355 66.32952657 -21.82617818 63.72056664 -21.625 61.0625 C-21.58117187 60.38509766 -21.53734375 59.70769531 -21.4921875 59.00976562 C-21.18991585 54.63102496 -20.66675719 50.33392172 -20 46 C-20.66 45.67 -21.32 45.34 -22 45 C-21.34 45 -20.68 45 -20 45 C-20.2165625 43.515 -20.2165625 43.515 -20.4375 42 C-20.63180236 40.66764096 -20.81747317 39.33402323 -21 38 C-21.26296875 36.329375 -21.26296875 36.329375 -21.53125 34.625 C-22.29907133 28.44228181 -22.10518477 22.2188424 -22.0625 16 C-22.05798828 14.74832031 -22.05347656 13.49664062 -22.04882812 12.20703125 C-22.03711415 9.13797059 -22.02071073 6.06901093 -22 3 C-18.51237879 1.72743087 -15.63611628 0.71835112 -11.9140625 1.0234375 C-10.86025391 1.10078125 -10.86025391 1.10078125 -9.78515625 1.1796875 C-9.07230469 1.24414062 -8.35945313 1.30859375 -7.625 1.375 C-6.88894531 1.43171875 -6.15289062 1.4884375 -5.39453125 1.546875 C-3.59547532 1.68706118 -1.79758061 1.84201786 0 2 C0 1.34 0 0.68 0 0 Z " fill="#020202" transform="translate(462,363)"/>
<path d="M0 0 C0 0.66 0 1.32 0 2 C0.87785156 2.09410156 1.75570312 2.18820312 2.66015625 2.28515625 C10.2316686 3.90572556 16.41910749 9.71656528 20.9375 15.8125 C28.45457307 27.67397261 30.46074905 40.49470759 27.9375 54.3125 C26.36365442 60.6725609 23.82724583 65.71428964 20 71 C19.236875 72.0725 18.47375 73.145 17.6875 74.25 C9.32031105 82.81177474 0.26778439 86.2506896 -11.5 86.4375 C-18.12208244 86.41094852 -23.2858209 85.55691598 -29 82 C-30.010625 81.46375 -31.02125 80.9275 -32.0625 80.375 C-32.701875 79.92125 -33.34125 79.4675 -34 79 C-34 78.34 -34 77.68 -34 77 C-34.66 77 -35.32 77 -36 77 C-36.33 90.53 -36.66 104.06 -37 118 C-44.59 118 -52.18 118 -60 118 C-60 79.72 -60 41.44 -60 2 C-52.41 2 -44.82 2 -37 2 C-36.67 4.64 -36.34 7.28 -36 10 C-35.071875 9.0925 -34.14375 8.185 -33.1875 7.25 C-23.27777755 -1.04742633 -12.22442505 -0.48413565 0 0 Z M-31 25 C-31 25.66 -31 26.32 -31 27 C-31.66 27 -32.32 27 -33 27 C-37.13118522 34.19625813 -39.06869578 40.95949018 -37.3125 49.25 C-35.18423997 55.33074295 -31.73736716 61.18358729 -25.765625 64.0859375 C-20.00021085 65.99145574 -13.13200083 66.07196457 -7.375 64.1015625 C-4.97311976 62.93487831 -4.97311976 62.93487831 -2 61 C-2 60.34 -2 59.68 -2 59 C-1.01 58.67 -0.02 58.34 1 58 C4.99576754 50.27574034 5.98316207 43.32074663 3.8125 34.9375 C1.92097337 29.12149757 -0.53477274 25.66259513 -5.6875 22.1875 C-14.84472428 18.90472149 -22.86672623 19.57781749 -31 25 Z " fill="#010101" transform="translate(642,397)"/>
<path d="M0 0 C9.37347179 6.22347515 15.85731333 15.62214427 18.67578125 26.55859375 C21.01638238 41.52612205 18.99302912 54.96876141 10.12109375 67.40625 C4.84327205 74.08619977 -3.33482285 79.98743323 -11.87890625 81.40625 C-21.17354527 82.0383269 -30.6188933 82.37288158 -38.87890625 77.40625 C-40.85890625 75.42625 -42.83890625 73.44625 -44.87890625 71.40625 C-45.20890625 85.26625 -45.53890625 99.12625 -45.87890625 113.40625 C-47.85890625 113.90125 -47.85890625 113.90125 -49.87890625 114.40625 C-49.87890625 113.74625 -49.87890625 113.08625 -49.87890625 112.40625 C-50.99265625 112.57125 -52.10640625 112.73625 -53.25390625 112.90625 C-58.13400963 113.52719505 -62.96752573 113.49682874 -67.87890625 113.40625 C-68.9535792 110.18223116 -68.99313999 107.89037631 -68.9765625 104.5012207 C-68.97325928 103.28598221 -68.96995605 102.07074371 -68.96655273 100.81867981 C-68.95825439 99.50308578 -68.94995605 98.18749176 -68.94140625 96.83203125 C-68.93699828 95.46543043 -68.93318228 94.09882758 -68.92993164 92.73222351 C-68.91657445 87.66196336 -68.89247364 82.59176468 -68.86853027 77.52154541 C-68.84870835 73.24227932 -68.83309988 68.96303714 -68.82296753 64.6837368 C-68.81653751 62.68532455 -68.80396264 60.68693508 -68.79125977 58.68855286 C-68.75078773 51.25475433 -68.75078773 51.25475433 -69.41015625 43.86132812 C-69.84469093 40.65844545 -69.82029666 38.07775948 -69.44140625 34.88671875 C-68.71578817 27.49448456 -68.8035721 20.1382669 -68.87890625 12.71875 C-68.90545722 10.02730367 -68.92534523 7.33609049 -68.94140625 4.64453125 C-68.95300781 3.46930908 -68.96460938 2.29408691 -68.9765625 1.08325195 C-68.87890625 -1.59375 -68.87890625 -1.59375 -67.87890625 -2.59375 C-66.24417743 -2.68075342 -64.6057657 -2.70076063 -62.96875 -2.69140625 C-61.97939453 -2.68818359 -60.99003906 -2.68496094 -59.97070312 -2.68164062 C-58.92978516 -2.67326172 -57.88886719 -2.66488281 -56.81640625 -2.65625 C-55.24922852 -2.64948242 -55.24922852 -2.64948242 -53.65039062 -2.64257812 C-51.05983965 -2.63074913 -48.46940066 -2.61426689 -45.87890625 -2.59375 C-45.54890625 0.04625 -45.21890625 2.68625 -44.87890625 5.40625 C-44.30140625 4.684375 -43.72390625 3.9625 -43.12890625 3.21875 C-31.95643398 -7.73465419 -12.98012795 -7.18574247 0 0 Z M-38.92578125 20.1796875 C-45.36558229 27.12509275 -46.3933924 33.66718277 -46.265625 42.984375 C-45.71855584 47.82510816 -44.05103807 50.79658276 -40.87890625 54.40625 C-40.21890625 55.19 -39.55890625 55.97375 -38.87890625 56.78125 C-33.07292725 61.49860794 -25.99440625 61.14174639 -18.87890625 60.40625 C-15.84339196 59.3673091 -13.61756517 58.12462423 -10.87890625 56.40625 C-10.87890625 55.74625 -10.87890625 55.08625 -10.87890625 54.40625 C-10.21890625 54.40625 -9.55890625 54.40625 -8.87890625 54.40625 C-4.95207172 47.69262967 -3.00127731 41.13727272 -4.203125 33.2890625 C-4.71967939 31.23286165 -4.71967939 31.23286165 -5.87890625 28.40625 C-6.14703125 27.705 -6.41515625 27.00375 -6.69140625 26.28125 C-9.84057445 21.30887916 -14.29977821 17.22397697 -20.1015625 15.8984375 C-27.14638445 14.87492396 -33.38499188 15.37907992 -38.92578125 20.1796875 Z " fill="#020202" transform="translate(746.87890625,401.59375)"/>
<path d="M0 0 C0.33 -2.31 0.66 -4.62 1 -7 C8.26 -7 15.52 -7 23 -7 C23.78369504 -2.29782976 24.13811923 1.94396376 24.11352539 6.65771484 C24.11367142 7.39986237 24.11381744 8.14200989 24.1139679 8.90664673 C24.11327539 11.34144083 24.10551419 13.77615689 24.09765625 16.2109375 C24.09578972 17.90630044 24.09436692 19.60166392 24.09336853 21.29702759 C24.08956189 25.74560044 24.07974751 30.19414032 24.06866455 34.6427002 C24.05841051 39.18757684 24.05386237 43.73245885 24.04882812 48.27734375 C24.0381235 57.18491027 24.02106944 66.09245239 24 75 C20.78934268 75.67021566 17.85656341 76.12127024 14.57421875 76.09765625 C13.77822266 76.09443359 12.98222656 76.09121094 12.16210938 76.08789062 C11.34548828 76.07951172 10.52886719 76.07113281 9.6875 76.0625 C8.85154297 76.05798828 8.01558594 76.05347656 7.15429688 76.04882812 C5.10283351 76.03710548 3.05140727 76.01917203 1 76 C0.505 72.04 0.505 72.04 0 68 C-0.78375 68.7425 -1.5675 69.485 -2.375 70.25 C-8.98334248 75.71041444 -17.48319924 78.28870511 -26 78 C-37.38815244 76.63552091 -47.47329792 72.99022748 -55 64 C-63.07579735 53.41863475 -65.9491717 42.25388841 -65 29 C-62.96837272 16.4583009 -57.54920347 6.46844091 -48 -2 C-32.33698326 -11.78652725 -14.58032308 -11.1242465 0 0 Z M-35.4375 17.0625 C-40.20197562 23.46012449 -41.74455068 31.18221786 -41 39 C-39.35595181 46.07655523 -36.85364836 50.70467415 -31.125 55.3125 C-25.55296003 58.24895303 -19.07678572 57.79994639 -13 57 C-6.99058832 54.88453732 -2.96615649 50.54542301 0 45 C0.92466753 42.6272914 0.92466753 42.6272914 1 40 C1.05027344 39.34257813 1.10054687 38.68515625 1.15234375 38.0078125 C1.4769841 30.50212768 -0.06619519 24.05476663 -4.8125 18.125 C-9.02531386 13.65341379 -13.60550516 11.49022368 -19.7890625 10.9453125 C-25.77044557 11.0932619 -31.24586919 12.66284781 -35.4375 17.0625 Z " fill="#010102" transform="translate(666,547)"/>
<path d="M0 0 C7.93899209 6.41277776 14.32162909 15.9482883 15.50390625 26.24609375 C16.88228463 40.48933699 16.88228463 40.48933699 15.50390625 43.24609375 C-4.62609375 43.57609375 -24.75609375 43.90609375 -45.49609375 44.24609375 C-42.51323465 50.21181196 -40.17159638 53.48209834 -34.16015625 56.3671875 C-27.18387052 58.66874804 -19.26489931 57.81160928 -12.46875 55.24609375 C-9.37686358 53.67872162 -7.06309223 51.56265335 -4.49609375 49.24609375 C-3.83609375 49.24609375 -3.17609375 49.24609375 -2.49609375 49.24609375 C-2.49609375 49.90609375 -2.49609375 50.56609375 -2.49609375 51.24609375 C-1.9340625 51.51164063 -1.37203125 51.7771875 -0.79296875 52.05078125 C1.68320847 53.33940409 3.94235507 54.80739736 6.25390625 56.37109375 C7.053125 56.90992188 7.85234375 57.44875 8.67578125 58.00390625 C9.2790625 58.41382813 9.88234375 58.82375 10.50390625 59.24609375 C9.50390625 61.24609375 8.50390625 63.24609375 7.50390625 65.24609375 C6.84390625 65.24609375 6.18390625 65.24609375 5.50390625 65.24609375 C5.50390625 65.90609375 5.50390625 66.56609375 5.50390625 67.24609375 C-6.66182341 76.68306161 -18.86550517 79.11882268 -33.9375 77.8046875 C-44.76841558 76.10455476 -54.41502835 70.48731785 -61.34375 61.9765625 C-69.2313664 50.60056538 -71.35905446 38.07180245 -69 24.36328125 C-67.05503106 17.35260223 -63.50811009 11.26411826 -59.49609375 5.24609375 C-58.83609375 5.24609375 -58.17609375 5.24609375 -57.49609375 5.24609375 C-57.26019531 4.64925781 -57.02429688 4.05242188 -56.78125 3.4375 C-53.34653046 -2.41927101 -45.01512894 -5.21868138 -38.796875 -7.2109375 C-24.40162199 -10.60811945 -12.02834306 -8.45184043 0 0 Z M-41.43359375 15.68359375 C-44.55074608 19.55641938 -45.49609375 21.19921451 -45.49609375 26.24609375 C-32.95609375 26.24609375 -20.41609375 26.24609375 -7.49609375 26.24609375 C-9.50317592 18.97183384 -9.50317592 18.97183384 -14.49609375 14.24609375 C-17.1614241 12.92707575 -17.1614241 12.92707575 -19.49609375 12.24609375 C-19.49609375 11.91609375 -19.49609375 11.58609375 -19.49609375 11.24609375 C-27.95078951 9.78108384 -34.63551198 10.04263228 -41.43359375 15.68359375 Z " fill="#020202" transform="translate(580.49609375,546.75390625)"/>
<path d="M0 0 C4.57298152 4.46085938 8.64902153 8.97561766 11 15 C11 15.66 11 16.32 11 17 C11.66 17.33 12.32 17.66 13 18 C15.83540667 32.30426313 14.75820243 46.16110407 6.8515625 58.546875 C-0.91914599 68.84224406 -10.67284402 74.30981747 -23.25 76.5 C-33.92091843 77.64098415 -44.21854087 75.93200513 -53.265625 69.98828125 C-55.10172473 68.75245756 -55.10172473 68.75245756 -58 69 C-59 67.33333333 -60 65.66666667 -61 64 C-62.010625 63.195625 -63.02125 62.39125 -64.0625 61.5625 C-67.38219095 58.66659938 -67.93195185 57.19003504 -69 53 C-69.50936605 51.66224391 -70.03087333 50.32906667 -70.5625 49 C-75.23462607 36.44661076 -72.97979566 24.5137019 -68.6875 12.25 C-66.60856665 8.24612836 -64.14034719 5.21458708 -61 2 C-60.48566406 1.47277344 -59.97132813 0.94554687 -59.44140625 0.40234375 C-42.90932491 -15.09896033 -16.96915851 -14.05306911 0 0 Z M-45 17 C-50.29763885 23.68264247 -49.86325191 31.8747526 -49 40 C-47.37181384 46.25262022 -43.29178733 50.45167856 -38 54 C-32.49555941 55.83481353 -25.9702145 56.22108818 -20.5390625 53.98828125 C-18.55586867 52.76076537 -16.77152613 51.51540187 -15 50 C-14.46890625 49.54625 -13.9378125 49.0925 -13.390625 48.625 C-9.92491469 44.57518121 -8.84532618 38.16237804 -8.625 32.9375 C-9.3555016 25.26723323 -11.4515688 19.41939792 -17 14 C-26.30684272 7.72329212 -37.14092114 9.14092114 -45 17 Z " fill="#020202" transform="translate(843,407)"/>
<path d="M0 0 C1.2684375 0.5878125 1.2684375 0.5878125 2.5625 1.1875 C9.01642482 5.9865723 13.11995625 13.2519698 14.33128357 21.16378784 C15.00756926 27.83357435 15.13016141 34.43218277 15.09765625 41.1328125 C15.0962413 42.25066132 15.09482635 43.36851013 15.09336853 44.52023315 C15.08781622 48.05518383 15.07527279 51.59006879 15.0625 55.125 C15.05747883 57.53645741 15.05291701 59.94791583 15.04882812 62.359375 C15.03786246 68.23960537 15.02117253 74.11979799 15 80 C12.05290859 80.7798923 9.50794985 81.11829696 6.453125 81.09765625 C5.60878906 81.09443359 4.76445313 81.09121094 3.89453125 81.08789062 C2.58548828 81.07532227 2.58548828 81.07532227 1.25 81.0625 C0.36183594 81.05798828 -0.52632812 81.05347656 -1.44140625 81.04882812 C-3.62767329 81.037074 -5.81380179 81.02064249 -8 81 C-8.89378253 68.93393591 -9.08758776 56.93581812 -8.96289062 44.83691406 C-8.45482592 31.56930124 -8.45482592 31.56930124 -14 20 C-18.04115669 17.30589554 -21.47145949 16.52669815 -26.31640625 17.43359375 C-31.27870973 18.88059163 -34.29421368 20.37761503 -37 25 C-37.97125304 28.07138146 -38.14445245 30.90823909 -38.18945312 34.11987305 C-38.20617065 35.13740158 -38.22288818 36.15493011 -38.2401123 37.20329285 C-38.25368774 38.29507339 -38.26726318 39.38685394 -38.28125 40.51171875 C-38.29965942 41.63568558 -38.31806885 42.7596524 -38.33703613 43.91767883 C-38.41577381 48.72993402 -38.48368504 53.54232702 -38.55224609 58.35473633 C-38.60380846 61.86547116 -38.66110212 65.37607945 -38.71875 68.88671875 C-38.73232544 69.98457199 -38.74590088 71.08242523 -38.7598877 72.21354675 C-38.77660522 73.2216188 -38.79332275 74.22969086 -38.81054688 75.26831055 C-38.82933899 76.60589668 -38.82933899 76.60589668 -38.84851074 77.97050476 C-39 80 -39 80 -40 81 C-47.26 81 -54.52 81 -62 81 C-62 53.61 -62 26.22 -62 -2 C-54.74 -2 -47.48 -2 -40 -2 C-39.67 -0.68 -39.34 0.64 -39 2 C-38.67 2.66 -38.34 3.32 -38 4 C-37.34 3.34 -36.68 2.68 -36 2 C-24.25565317 -4.16002505 -12.20917884 -6.47833979 0 0 Z " fill="#020202" transform="translate(821,542)"/>
<path d="M0 0 C7.59 0 15.18 0 23 0 C23 30.69 23 61.38 23 93 C37.52 93 52.04 93 67 93 C68.83946488 111.39464883 68.83946488 111.39464883 66 116 C63.7960685 116.95503699 62.55131797 117.14973828 60.22833252 116.51881409 C57.50379821 115.88447125 55.0199295 115.88039146 52.22167969 115.88647461 C50.48032745 115.88658791 50.48032745 115.88658791 48.70379639 115.88670349 C47.45576233 115.89186478 46.20772827 115.89702606 44.921875 115.90234375 C43.64016418 115.9037587 42.35845337 115.90517365 41.03790283 115.90663147 C37.6381636 115.91044099 34.2384674 115.92025786 30.83874512 115.93133545 C27.366461 115.94158326 23.8941699 115.9461363 20.421875 115.95117188 C13.61456571 115.96188159 6.80728492 115.97893916 0 116 C-1.51069209 108.51520737 -2.13038647 101.9819284 -1.19140625 94.375 C-0.92618047 91.08403521 -1.36792875 88.2305864 -2 85 C-1.34 85 -0.68 85 0 85 C-0.33 84.34 -0.66 83.68 -1 83 C-1.09820827 80.41159497 -1.1363075 77.85012338 -1.12939453 75.26147461 C-1.13114685 74.46299606 -1.13289917 73.66451752 -1.13470459 72.84184265 C-1.13911578 70.19532109 -1.13618796 67.54886602 -1.1328125 64.90234375 C-1.13348568 63.06913744 -1.13445583 61.23593122 -1.13571167 59.40272522 C-1.13718759 55.55843253 -1.13503721 51.71416305 -1.13037109 47.86987305 C-1.12466986 42.93087132 -1.12795597 37.99192389 -1.13394356 33.05292416 C-1.13754859 29.26725349 -1.13641092 25.4815958 -1.13381577 21.69592476 C-1.13314654 19.87417151 -1.13397476 18.0524171 -1.13629532 16.23066521 C-1.13882133 13.69012177 -1.13498219 11.14966761 -1.12939453 8.60913086 C-1.13141876 7.84910767 -1.13344299 7.08908447 -1.13552856 6.30603027 C-1.11426344 1.11426344 -1.11426344 1.11426344 0 0 Z " fill="#020202" transform="translate(442,507)"/>
<path d="M0 0 C0 7.26 0 14.52 0 22 C-3.3 22 -6.6 22 -10 22 C-12.71991938 22.49137952 -12.71991938 22.49137952 -14.875 23.375 C-15.57367187 23.63023437 -16.27234375 23.88546875 -16.9921875 24.1484375 C-21.4435865 25.81273175 -21.4435865 25.81273175 -24.1875 29.4375 C-24.455625 30.283125 -24.72375 31.12875 -25 32 C-25.33 32.99 -25.66 33.98 -26 35 C-26.15057047 36.9019145 -26.24855099 38.80818545 -26.31640625 40.71484375 C-26.37900635 42.44371826 -26.37900635 42.44371826 -26.44287109 44.20751953 C-26.48234863 45.43841309 -26.52182617 46.66930664 -26.5625 47.9375 C-26.60713379 49.18901855 -26.65176758 50.44053711 -26.69775391 51.72998047 C-26.97819327 60.20271423 -27.08353689 68.65875384 -26.78735352 77.13256836 C-26.7421875 79.4140625 -26.7421875 79.4140625 -27 83 C-30 85 -30 85 -32.19921875 84.62890625 C-33.12347656 84.42136719 -34.04773438 84.21382812 -35 84 C-37.61481958 83.93225856 -40.19979256 83.90499742 -42.8125 83.9375 C-43.85180664 83.94426758 -43.85180664 83.94426758 -44.91210938 83.95117188 C-46.60811068 83.96286844 -48.30406703 83.98080076 -50 84 C-51.16590406 80.50228783 -51.12708017 77.76100893 -51.12939453 74.06933594 C-51.13114685 73.36813126 -51.13289917 72.66692657 -51.13470459 71.94447327 C-51.13910833 69.62441538 -51.13618903 67.30443368 -51.1328125 64.984375 C-51.13348627 63.36875392 -51.1344569 61.75313294 -51.13571167 60.13751221 C-51.13718689 56.74807777 -51.13504083 53.35866966 -51.13037109 49.96923828 C-51.12469215 45.63731649 -51.12794225 41.30545692 -51.13394356 36.97353745 C-51.13756949 33.63455747 -51.13640094 30.29559206 -51.13381577 26.95661163 C-51.13315117 25.36031334 -51.13395852 23.7640137 -51.13629532 22.16771698 C-51.1388532 19.92785685 -51.13493655 17.68809505 -51.12939453 15.44824219 C-51.12859894 14.17599792 -51.12780334 12.90375366 -51.12698364 11.59295654 C-50.9998751 7.99646601 -50.5754854 4.55002268 -50 1 C-46.73012965 0.77412227 -43.45920719 0.57233395 -40.1875 0.375 C-38.7943457 0.27832031 -38.7943457 0.27832031 -37.37304688 0.1796875 C-36.48037109 0.128125 -35.58769531 0.0765625 -34.66796875 0.0234375 C-33.84578857 -0.02893066 -33.0236084 -0.08129883 -32.17651367 -0.13525391 C-30 0 -30 0 -27 2 C-26.8125 5.625 -26.8125 5.625 -27 9 C-26.34 8.67 -25.68 8.34 -25 8 C-25 7.01 -25 6.02 -25 5 C-24.443125 4.896875 -23.88625 4.79375 -23.3125 4.6875 C-20.90664918 4.09017622 -20.90664918 4.09017622 -18.734375 2.53515625 C-15.73167764 0.84935616 -13.32775202 0.28146808 -9.9375 -0.25 C-8.91527344 -0.42015625 -7.89304687 -0.5903125 -6.83984375 -0.765625 C-4 -1 -4 -1 0 0 Z " fill="#020202" transform="translate(752,539)"/>
<path d="M0 0 C7.59 0 15.18 0 23 0 C23.02255088 10.67420075 23.040915 21.3483858 23.05181217 32.02260494 C23.05704103 36.97853922 23.06413874 41.93445642 23.07543945 46.89038086 C23.08626822 51.66898836 23.09227681 56.44757938 23.09487724 61.2261982 C23.09673151 63.05353619 23.10035216 64.88087324 23.10573006 66.70820427 C23.11294036 69.25853329 23.11399095 71.80879337 23.11352539 74.35913086 C23.11712067 75.12229614 23.12071594 75.88546143 23.12442017 76.67175293 C23.11405216 81.88594784 23.11405216 81.88594784 22 83 C20.37742456 83.0991657 18.75060169 83.13079777 17.125 83.1328125 C16.14015625 83.13410156 15.1553125 83.13539063 14.140625 83.13671875 C13.10421875 83.13285156 12.0678125 83.12898438 11 83.125 C9.44539062 83.13080078 9.44539062 83.13080078 7.859375 83.13671875 C6.87453125 83.13542969 5.8896875 83.13414062 4.875 83.1328125 C3.96492187 83.13168457 3.05484375 83.13055664 2.1171875 83.12939453 C0 83 0 83 -1 82 C-1.10034055 79.51573333 -1.13617942 77.05925048 -1.12939453 74.57446289 C-1.13114685 73.7972438 -1.13289917 73.02002472 -1.13470459 72.21925354 C-1.13912402 69.63703206 -1.13618452 67.05487849 -1.1328125 64.47265625 C-1.13348558 62.68525682 -1.13445564 60.89785749 -1.13571167 59.11045837 C-1.13718882 55.35854219 -1.13503379 51.60664976 -1.13037109 47.85473633 C-1.1246779 43.03799323 -1.1279501 38.2213059 -1.13394356 33.40456486 C-1.13755221 29.71149778 -1.13640911 26.01844398 -1.13381577 22.32537651 C-1.13314713 20.54910717 -1.13397273 18.77283663 -1.13629532 16.99656868 C-1.13882636 14.51599039 -1.13497465 12.03550313 -1.12939453 9.55493164 C-1.13141876 8.81563416 -1.13344299 8.07633667 -1.13552856 7.31463623 C-1.1142635 2.228527 -1.1142635 2.228527 0 0 Z " fill="#020202" transform="translate(547,399)"/>
<path d="M0 0 C4.53937218 3.40452913 7.06817343 5.99324472 8.25 11.6875 C8.61987236 17.2253112 7.5707117 20.83859009 4 25.125 C0.14131263 29.06995884 -2.56689042 30.44035552 -8.0625 31.0625 C-14.02115476 30.45653511 -18.1090817 28.45464278 -22.1875 24.0625 C-24.7648442 18.49543652 -25.578565 13.27067323 -23.6875 7.375 C-17.50572526 -1.19971979 -9.67903195 -4.61953797 0 0 Z " fill="#020202" transform="translate(309.75,429.3125)"/>
<path d="M0 0 C0.86367188 -0.00257813 1.72734375 -0.00515625 2.6171875 -0.0078125 C4.93165971 0.11476079 6.90789116 0.47533555 9.125 1.125 C9.125 1.785 9.125 2.445 9.125 3.125 C9.723125 3.310625 10.32125 3.49625 10.9375 3.6875 C13.51512047 5.38136488 14.62124336 7.11708651 15.703125 9.99609375 C16.55486377 14.29421993 15.79575802 18.11650152 14.125 22.125 C11.27253547 25.84926334 7.96446218 27.7363601 3.75 29.6875 C-2.02040987 30.38392878 -6.47484965 28.66355792 -11.3125 25.5625 C-13.8032363 21.67695138 -14.64840898 17.71346815 -14.875 13.125 C-13.39809868 7.82553056 -10.99545976 4.71719569 -6.875 1.125 C-4.41490037 -0.10504981 -2.74327194 -0.00814027 0 0 Z " fill="#020202" transform="translate(557.875,362.875)"/>
<path d="M0 0 C2.79348323 1.2415481 4.45140815 2.32672818 6.375 4.6875 C7.3485867 8.28977078 7.17711224 11.50328422 6 15 C2.90872317 18.53288781 1.08505904 19.82867489 -3.5625 20.5625 C-7.65486529 19.89284023 -9.23500667 19.08099257 -12 16 C-13.81042834 11.92653623 -14.34516794 9.99715182 -12.875 5.75 C-9.20659875 0.36967817 -6.57516989 -0.69212315 0 0 Z " fill="#050505" transform="translate(348,494)"/>
<path d="M0 0 C3.43391851 1.17734349 5.27236319 2.80387191 7 6 C7.5412081 10.96107425 7.14534237 14.06832204 4 18 C0.57905881 20.56570589 -2.84773484 20.43708054 -7 20 C-9.75329021 18.20437595 -11.52627461 16.94745078 -13 14 C-13.70153846 6.86769231 -13.70153846 6.86769231 -10.625 3.0625 C-6.80267 0.05924072 -4.84965882 -0.29097953 0 0 Z " fill="#030303" transform="translate(385,494)"/>
<path d="M0 0 C0.33 0 0.66 0 1 0 C1 2.97 1 5.94 1 9 C0.67 9 0.34 9 0 9 C0 6.03 0 3.06 0 0 Z " fill="#151414" transform="translate(580,468)"/>
<path d="M0 0 C0.99 0 1.98 0 3 0 C2.67 0.66 2.34 1.32 2 2 C1.34 2 0.68 2 0 2 C0 1.34 0 0.68 0 0 Z " fill="#262727" transform="translate(808,616)"/>
<path d="M0 0 C1.65 0 3.3 0 5 0 C5 0.33 5 0.66 5 1 C3.35 1 1.7 1 0 1 C0 0.67 0 0.34 0 0 Z " fill="#181716" transform="translate(504,435)"/>
<path d="M0 0 C0.66 0 1.32 0 2 0 C1.67 0.99 1.34 1.98 1 3 C0.67 2.01 0.34 1.02 0 0 Z " fill="#181819" transform="translate(600,594)"/>
<path d="M0 0 C1 4 1 4 1 4 Z " fill="#171516" transform="translate(571,476)"/>
<path d="M0 0 C0.99 1.485 0.99 1.485 2 3 C1.34 3 0.68 3 0 3 C0 2.01 0 1.02 0 0 Z " fill="#151616" transform="translate(504,408)"/>
<path d="M0 0 C0.66 0 1.32 0 2 0 C1.67 0.99 1.34 1.98 1 3 C0.67 2.01 0.34 1.02 0 0 Z " fill="#1F2120" transform="translate(222,392)"/>
<path d="" fill="#181717" transform="translate(0,0)"/>
<path d="M0 0 C0.66 0 1.32 0 2 0 C1.67 0.66 1.34 1.32 1 2 C0.67 1.34 0.34 0.68 0 0 Z " fill="#181717" transform="translate(659,566)"/>
<path d="" fill="#171516" transform="translate(0,0)"/>
<path d="M0 0 C0.33 0.66 0.66 1.32 1 2 C0.34 1.67 -0.32 1.34 -1 1 C-0.67 0.67 -0.34 0.34 0 0 Z " fill="#1F1D1E" transform="translate(370,461)"/>
<path d="" fill="#151516" transform="translate(0,0)"/>
<path d="" fill="#201F20" transform="translate(0,0)"/>
<path d="" fill="#151615" transform="translate(0,0)"/>
<path d="M0 0 C0.66 0.66 1.32 1.32 2 2 C1.34 2 0.68 2 0 2 C0 1.34 0 0.68 0 0 Z " fill="#242222" transform="translate(784,403)"/>
<path d="M0 0 C0.33 0.66 0.66 1.32 1 2 C0.34 1.67 -0.32 1.34 -1 1 C-0.67 0.67 -0.34 0.34 0 0 Z " fill="#222022" transform="translate(194,387)"/>
<path d="M0 0 C3 1 3 1 3 1 Z " fill="#292929" transform="translate(284,362)"/>
<path d="M0 0 C2 1 2 1 2 1 Z " fill="#191A18" transform="translate(290,624)"/>
<path d="M0 0 C2 1 2 1 2 1 Z " fill="#1D1E20" transform="translate(537,623)"/>
<path d="" fill="#1B1B1B" transform="translate(0,0)"/>
<path d="" fill="#1B1D1B" transform="translate(0,0)"/>
<path d="M0 0 C2 1 2 1 2 1 Z " fill="#2A2727" transform="translate(147,607)"/>
<path d="" fill="#1F1D1D" transform="translate(0,0)"/>
<path d="M0 0 C2 1 2 1 2 1 Z " fill="#191819" transform="translate(559,591)"/>
<path d="M0 0 C2 1 2 1 2 1 Z " fill="#171716" transform="translate(541,563)"/>
<path d="" fill="#2B2829" transform="translate(0,0)"/>
<path d="" fill="#1A191B" transform="translate(0,0)"/>
<path d="" fill="#1F201D" transform="translate(0,0)"/>
<path d="M0 0 C2 1 2 1 2 1 Z " fill="#1D1D1B" transform="translate(536,539)"/>
<path d="M0 0 C2 1 2 1 2 1 Z " fill="#1C1D1E" transform="translate(779,538)"/>
<path d="M0 0 C2 1 2 1 2 1 Z " fill="#1D1C1B" transform="translate(640,536)"/>
<path d="" fill="#191C1C" transform="translate(0,0)"/>
<path d="" fill="#191618" transform="translate(0,0)"/>
<path d="" fill="#181A18" transform="translate(0,0)"/>
<path d="M0 0 C2 1 2 1 2 1 Z " fill="#1D1C1A" transform="translate(726,484)"/>
<path d="M0 0 C2 1 2 1 2 1 Z " fill="#1C1A1B" transform="translate(716,483)"/>
<path d="" fill="#151415" transform="translate(0,0)"/>
<path d="" fill="#131313" transform="translate(0,0)"/>
<path d="" fill="#191818" transform="translate(0,0)"/>
<path d="" fill="#161313" transform="translate(0,0)"/>
<path d="" fill="#151412" transform="translate(0,0)"/>
<path d="" fill="#141414" transform="translate(0,0)"/>
<path d="" fill="#131314" transform="translate(0,0)"/>
<path d="" fill="#161316" transform="translate(0,0)"/>
<path d="" fill="#131211" transform="translate(0,0)"/>
<path d="" fill="#0E0D0E" transform="translate(0,0)"/>
<path d="" fill="#151616" transform="translate(0,0)"/>
<path d="M0 0 C2 1 2 1 2 1 Z " fill="#191B17" transform="translate(737,427)"/>
<path d="M0 0 C2 1 2 1 2 1 Z " fill="#201E1E" transform="translate(821,420)"/>
<path d="M0 0 C2 1 2 1 2 1 Z " fill="#1D1E1B" transform="translate(727,419)"/>
<path d="" fill="#131415" transform="translate(0,0)"/>
<path d="" fill="#0F100F" transform="translate(0,0)"/>
<path d="" fill="#171717" transform="translate(0,0)"/>
<path d="" fill="#101211" transform="translate(0,0)"/>
<path d="M0 0 C2 1 2 1 2 1 Z " fill="#201E20" transform="translate(707,400)"/>
<path d="M0 0 C2 1 2 1 2 1 Z " fill="#222221" transform="translate(618,397)"/>
<path d="M0 0 C2 1 2 1 2 1 Z " fill="#28292A" transform="translate(279,362)"/>
<path d="M0 0 C2 1 2 1 2 1 Z " fill="#2D2C2E" transform="translate(544,361)"/>
<path d="" fill="#363634" transform="translate(0,0)"/>
<path d="" fill="#848485" transform="translate(0,0)"/>
<path d="" fill="#848283" transform="translate(0,0)"/>
<path d="" fill="#858785" transform="translate(0,0)"/>
<path d="" fill="#8A898A" transform="translate(0,0)"/>
<path d="" fill="#848585" transform="translate(0,0)"/>
<path d="" fill="#7A797B" transform="translate(0,0)"/>
<path d="" fill="#8C8C8C" transform="translate(0,0)"/>
<path d="" fill="#838284" transform="translate(0,0)"/>
<path d="" fill="#818282" transform="translate(0,0)"/>
<path d="" fill="#858887" transform="translate(0,0)"/>
<path d="" fill="#888788" transform="translate(0,0)"/>
<path d="" fill="#858483" transform="translate(0,0)"/>
<path d="" fill="#858787" transform="translate(0,0)"/>
<path d="" fill="#7F7F7E" transform="translate(0,0)"/>
<path d="" fill="#7F7E81" transform="translate(0,0)"/>
<path d="" fill="#868585" transform="translate(0,0)"/>
<path d="" fill="#7E7E7E" transform="translate(0,0)"/>
<path d="" fill="#8B8D8D" transform="translate(0,0)"/>
<path d="" fill="#908F8F" transform="translate(0,0)"/>
<path d="" fill="#333534" transform="translate(0,0)"/>
<path d="" fill="#252625" transform="translate(0,0)"/>
<path d="" fill="#222424" transform="translate(0,0)"/>
<path d="" fill="#323132" transform="translate(0,0)"/>
<path d="" fill="#272728" transform="translate(0,0)"/>
<path d="" fill="#252522" transform="translate(0,0)"/>
<path d="" fill="#252423" transform="translate(0,0)"/>
<path d="" fill="#232523" transform="translate(0,0)"/>
<path d="" fill="#242222" transform="translate(0,0)"/>
<path d="" fill="#242528" transform="translate(0,0)"/>
<path d="" fill="#2A2A2A" transform="translate(0,0)"/>
<path d="" fill="#2A2C2E" transform="translate(0,0)"/>
<path d="" fill="#1D1B1C" transform="translate(0,0)"/>
<path d="" fill="#1D1C1C" transform="translate(0,0)"/>
<path d="" fill="#1A1C1B" transform="translate(0,0)"/>
<path d="" fill="#1B1D1C" transform="translate(0,0)"/>
<path d="" fill="#1C1C1A" transform="translate(0,0)"/>
<path d="" fill="#1F1E1E" transform="translate(0,0)"/>
<path d="" fill="#1C1C1B" transform="translate(0,0)"/>
<path d="" fill="#181918" transform="translate(0,0)"/>
<path d="" fill="#262827" transform="translate(0,0)"/>
<path d="" fill="#1C1B1C" transform="translate(0,0)"/>
<path d="" fill="#292627" transform="translate(0,0)"/>
<path d="" fill="#3E393C" transform="translate(0,0)"/>
<path d="" fill="#313434" transform="translate(0,0)"/>
<path d="" fill="#2F2F31" transform="translate(0,0)"/>
<path d="" fill="#212124" transform="translate(0,0)"/>
<path d="" fill="#201F22" transform="translate(0,0)"/>
<path d="" fill="#272627" transform="translate(0,0)"/>
<path d="" fill="#1C1D1D" transform="translate(0,0)"/>
<path d="" fill="#1D1E1E" transform="translate(0,0)"/>
<path d="" fill="#1E1E1C" transform="translate(0,0)"/>
<path d="" fill="#1C1B1D" transform="translate(0,0)"/>
<path d="" fill="#272927" transform="translate(0,0)"/>
<path d="" fill="#20201D" transform="translate(0,0)"/>
<path d="" fill="#21211F" transform="translate(0,0)"/>
<path d="" fill="#1C1B1B" transform="translate(0,0)"/>
<path d="" fill="#3A3839" transform="translate(0,0)"/>
<path d="" fill="#212020" transform="translate(0,0)"/>
<path d="" fill="#242423" transform="translate(0,0)"/>
<path d="" fill="#383435" transform="translate(0,0)"/>
<path d="" fill="#221F20" transform="translate(0,0)"/>
<path d="" fill="#353435" transform="translate(0,0)"/>
<path d="" fill="#202021" transform="translate(0,0)"/>
<path d="" fill="#212122" transform="translate(0,0)"/>
<path d="" fill="#1C1D1F" transform="translate(0,0)"/>
<path d="" fill="#1C1D1D" transform="translate(0,0)"/>
<path d="" fill="#1A1C19" transform="translate(0,0)"/>
<path d="" fill="#1F1F1E" transform="translate(0,0)"/>
<path d="" fill="#1E1C1E" transform="translate(0,0)"/>
<path d="" fill="#20201F" transform="translate(0,0)"/>
<path d="" fill="#222420" transform="translate(0,0)"/>
<path d="" fill="#1D201F" transform="translate(0,0)"/>
<path d="" fill="#2A292A" transform="translate(0,0)"/>
<path d="" fill="#20211F" transform="translate(0,0)"/>
<path d="" fill="#262726" transform="translate(0,0)"/>
<path d="" fill="#282726" transform="translate(0,0)"/>
<path d="" fill="#1B1B1A" transform="translate(0,0)"/>
<path d="" fill="#171916" transform="translate(0,0)"/>
<path d="" fill="#191917" transform="translate(0,0)"/>
<path d="" fill="#1D1D1C" transform="translate(0,0)"/>
<path d="" fill="#191819" transform="translate(0,0)"/>
<path d="" fill="#2A2729" transform="translate(0,0)"/>
<path d="" fill="#2B2D2E" transform="translate(0,0)"/>
<path d="" fill="#1B191B" transform="translate(0,0)"/>
<path d="" fill="#151613" transform="translate(0,0)"/>
<path d="" fill="#1B1C1E" transform="translate(0,0)"/>
<path d="" fill="#1A1919" transform="translate(0,0)"/>
<path d="" fill="#1D1A1C" transform="translate(0,0)"/>
<path d="" fill="#1B1B1C" transform="translate(0,0)"/>
<path d="" fill="#191817" transform="translate(0,0)"/>
<path d="" fill="#1D1C1E" transform="translate(0,0)"/>
<path d="" fill="#232124" transform="translate(0,0)"/>
<path d="" fill="#212123" transform="translate(0,0)"/>
<path d="" fill="#191919" transform="translate(0,0)"/>
<path d="" fill="#191818" transform="translate(0,0)"/>
<path d="" fill="#191A18" transform="translate(0,0)"/>
<path d="" fill="#1A1817" transform="translate(0,0)"/>
<path d="" fill="#1F1D1C" transform="translate(0,0)"/>
<path d="" fill="#1E1C1C" transform="translate(0,0)"/>
<path d="" fill="#1C1B1E" transform="translate(0,0)"/>
<path d="" fill="#1C1D1D" transform="translate(0,0)"/>
<path d="" fill="#1B1C1D" transform="translate(0,0)"/>
<path d="" fill="#181815" transform="translate(0,0)"/>
<path d="" fill="#1D1E1F" transform="translate(0,0)"/>
<path d="" fill="#1B1B1B" transform="translate(0,0)"/>
<path d="" fill="#181918" transform="translate(0,0)"/>
<path d="" fill="#171617" transform="translate(0,0)"/>
<path d="" fill="#1C1D1C" transform="translate(0,0)"/>
<path d="" fill="#1C1B1D" transform="translate(0,0)"/>
<path d="" fill="#1C191B" transform="translate(0,0)"/>
<path d="" fill="#1C1A1D" transform="translate(0,0)"/>
<path d="" fill="#292A2A" transform="translate(0,0)"/>
<path d="" fill="#161919" transform="translate(0,0)"/>
<path d="" fill="#181917" transform="translate(0,0)"/>
<path d="" fill="#2C2B2B" transform="translate(0,0)"/>
<path d="" fill="#161414" transform="translate(0,0)"/>
<path d="" fill="#232121" transform="translate(0,0)"/>
<path d="" fill="#181418" transform="translate(0,0)"/>
<path d="" fill="#1E1D1A" transform="translate(0,0)"/>
<path d="" fill="#2E2C2C" transform="translate(0,0)"/>
<path d="" fill="#1D1D1B" transform="translate(0,0)"/>
<path d="" fill="#211F1E" transform="translate(0,0)"/>
<path d="" fill="#201F1F" transform="translate(0,0)"/>
<path d="" fill="#2C2D2C" transform="translate(0,0)"/>
<path d="" fill="#1B1A1B" transform="translate(0,0)"/>
<path d="" fill="#131617" transform="translate(0,0)"/>
<path d="" fill="#171816" transform="translate(0,0)"/>
<path d="" fill="#201F1D" transform="translate(0,0)"/>
<path d="" fill="#181718" transform="translate(0,0)"/>
<path d="" fill="#1A1818" transform="translate(0,0)"/>
<path d="" fill="#151414" transform="translate(0,0)"/>
<path d="" fill="#17161B" transform="translate(0,0)"/>
<path d="" fill="#161616" transform="translate(0,0)"/>
<path d="" fill="#1F1E21" transform="translate(0,0)"/>
<path d="" fill="#1F1D1D" transform="translate(0,0)"/>
<path d="" fill="#1D1E1E" transform="translate(0,0)"/>
<path d="" fill="#181617" transform="translate(0,0)"/>
<path d="" fill="#181718" transform="translate(0,0)"/>
<path d="" fill="#1C1B1A" transform="translate(0,0)"/>
<path d="" fill="#1E201F" transform="translate(0,0)"/>
<path d="" fill="#1D1D1D" transform="translate(0,0)"/>
<path d="" fill="#1C1E1E" transform="translate(0,0)"/>
<path d="" fill="#1D201E" transform="translate(0,0)"/>
<path d="" fill="#1F1F1D" transform="translate(0,0)"/>
<path d="" fill="#191B18" transform="translate(0,0)"/>
<path d="" fill="#1C1E1F" transform="translate(0,0)"/>
<path d="" fill="#1F1F1F" transform="translate(0,0)"/>
<path d="" fill="#29282A" transform="translate(0,0)"/>
<path d="" fill="#1D2021" transform="translate(0,0)"/>
<path d="" fill="#1D1F1D" transform="translate(0,0)"/>
<path d="" fill="#1A1C1B" transform="translate(0,0)"/>
<path d="" fill="#19181A" transform="translate(0,0)"/>
<path d="" fill="#1C1D1D" transform="translate(0,0)"/>
<path d="" fill="#1F211C" transform="translate(0,0)"/>
<path d="" fill="#1D1C1F" transform="translate(0,0)"/>
<path d="" fill="#30302E" transform="translate(0,0)"/>
<path d="" fill="#1C1B1A" transform="translate(0,0)"/>
<path d="" fill="#292A29" transform="translate(0,0)"/>
<path d="" fill="#1C1B19" transform="translate(0,0)"/>
<path d="" fill="#23211A" transform="translate(0,0)"/>
<path d="" fill="#202120" transform="translate(0,0)"/>
<path d="" fill="#1B1A1A" transform="translate(0,0)"/>
<path d="" fill="#2A2A27" transform="translate(0,0)"/>
<path d="" fill="#1F2022" transform="translate(0,0)"/>
<path d="" fill="#1B171B" transform="translate(0,0)"/>
<path d="" fill="#1C191B" transform="translate(0,0)"/>
<path d="" fill="#2D2A2A" transform="translate(0,0)"/>
<path d="" fill="#2B2C2B" transform="translate(0,0)"/>
<path d="" fill="#1F1F21" transform="translate(0,0)"/>
<path d="" fill="#1A1B1C" transform="translate(0,0)"/>
<path d="" fill="#1A1918" transform="translate(0,0)"/>
<path d="" fill="#1B1B1C" transform="translate(0,0)"/>
<path d="" fill="#1D1E1E" transform="translate(0,0)"/>
<path d="" fill="#1D1D1D" transform="translate(0,0)"/>
<path d="" fill="#1A1C1D" transform="translate(0,0)"/>
<path d="" fill="#191917" transform="translate(0,0)"/>
<path d="" fill="#1A1C1B" transform="translate(0,0)"/>
<path d="" fill="#19181A" transform="translate(0,0)"/>
<path d="" fill="#221F21" transform="translate(0,0)"/>
<path d="" fill="#212021" transform="translate(0,0)"/>
<path d="" fill="#1F1F1E" transform="translate(0,0)"/>
<path d="" fill="#1F1E20" transform="translate(0,0)"/>
<path d="" fill="#201E1F" transform="translate(0,0)"/>
<path d="" fill="#1C1E1D" transform="translate(0,0)"/>
<path d="" fill="#1D1E1E" transform="translate(0,0)"/>
<path d="" fill="#21211F" transform="translate(0,0)"/>
<path d="" fill="#252424" transform="translate(0,0)"/>
<path d="" fill="#201F1D" transform="translate(0,0)"/>
<path d="" fill="#1C1C1C" transform="translate(0,0)"/>
<path d="" fill="#1E1E1E" transform="translate(0,0)"/>
<path d="" fill="#222120" transform="translate(0,0)"/>
<path d="" fill="#1F1F21" transform="translate(0,0)"/>
<path d="" fill="#252423" transform="translate(0,0)"/>
<path d="" fill="#221F1E" transform="translate(0,0)"/>
<path d="" fill="#1D1C1A" transform="translate(0,0)"/>
<path d="" fill="#1A1C1A" transform="translate(0,0)"/>
<path d="" fill="#2A2929" transform="translate(0,0)"/>
<path d="" fill="#1A1A17" transform="translate(0,0)"/>
<path d="" fill="#29272A" transform="translate(0,0)"/>
<path d="" fill="#262625" transform="translate(0,0)"/>
<path d="" fill="#201E20" transform="translate(0,0)"/>
<path d="" fill="#1A1818" transform="translate(0,0)"/>
<path d="" fill="#1E1C20" transform="translate(0,0)"/>
<path d="" fill="#1A1817" transform="translate(0,0)"/>
<path d="" fill="#1E1E1E" transform="translate(0,0)"/>
<path d="" fill="#212020" transform="translate(0,0)"/>
<path d="" fill="#2C2A2A" transform="translate(0,0)"/>
<path d="" fill="#1E1D1D" transform="translate(0,0)"/>
<path d="" fill="#242524" transform="translate(0,0)"/>
<path d="" fill="#222424" transform="translate(0,0)"/>
<path d="" fill="#151617" transform="translate(0,0)"/>
<path d="" fill="#1D1C1C" transform="translate(0,0)"/>
<path d="" fill="#232324" transform="translate(0,0)"/>
<path d="" fill="#181617" transform="translate(0,0)"/>
<path d="" fill="#1E1C1E" transform="translate(0,0)"/>
<path d="" fill="#252221" transform="translate(0,0)"/>
<path d="" fill="#222321" transform="translate(0,0)"/>
<path d="" fill="#252322" transform="translate(0,0)"/>
<path d="" fill="#131515" transform="translate(0,0)"/>
<path d="" fill="#1A1B19" transform="translate(0,0)"/>
<path d="" fill="#161316" transform="translate(0,0)"/>
<path d="" fill="#252423" transform="translate(0,0)"/>
<path d="" fill="#1A191C" transform="translate(0,0)"/>
<path d="" fill="#1D1D1B" transform="translate(0,0)"/>
<path d="" fill="#232322" transform="translate(0,0)"/>
<path d="" fill="#211F1D" transform="translate(0,0)"/>
<path d="" fill="#1E201E" transform="translate(0,0)"/>
<path d="" fill="#1C1E1B" transform="translate(0,0)"/>
<path d="" fill="#171615" transform="translate(0,0)"/>
<path d="" fill="#232223" transform="translate(0,0)"/>
<path d="" fill="#222221" transform="translate(0,0)"/>
<path d="" fill="#1D1C1C" transform="translate(0,0)"/>
<path d="" fill="#1A1918" transform="translate(0,0)"/>
<path d="" fill="#1C1C1A" transform="translate(0,0)"/>
<path d="" fill="#1E1C1B" transform="translate(0,0)"/>
<path d="" fill="#1B1C1C" transform="translate(0,0)"/>
<path d="" fill="#1D1D1D" transform="translate(0,0)"/>
<path d="" fill="#1D1C1D" transform="translate(0,0)"/>
<path d="" fill="#1B1A1B" transform="translate(0,0)"/>
<path d="" fill="#171615" transform="translate(0,0)"/>
<path d="" fill="#1C1E1C" transform="translate(0,0)"/>
<path d="" fill="#1C1B1D" transform="translate(0,0)"/>
<path d="" fill="#1F1F1E" transform="translate(0,0)"/>
<path d="" fill="#181819" transform="translate(0,0)"/>
<path d="" fill="#1F1C1C" transform="translate(0,0)"/>
<path d="" fill="#1B1B1C" transform="translate(0,0)"/>
<path d="" fill="#1D1B1A" transform="translate(0,0)"/>
<path d="" fill="#1F1F1D" transform="translate(0,0)"/>
<path d="" fill="#161818" transform="translate(0,0)"/>
<path d="" fill="#1D1D1D" transform="translate(0,0)"/>
<path d="" fill="#161515" transform="translate(0,0)"/>
<path d="" fill="#161414" transform="translate(0,0)"/>
<path d="" fill="#1B1E1D" transform="translate(0,0)"/>
<path d="" fill="#121412" transform="translate(0,0)"/>
<path d="" fill="#2C2B2B" transform="translate(0,0)"/>
<path d="" fill="#151414" transform="translate(0,0)"/>
<path d="" fill="#141012" transform="translate(0,0)"/>
<path d="" fill="#272B28" transform="translate(0,0)"/>
<path d="" fill="#151413" transform="translate(0,0)"/>
<path d="" fill="#161311" transform="translate(0,0)"/>
<path d="" fill="#111112" transform="translate(0,0)"/>
<path d="" fill="#212120" transform="translate(0,0)"/>
<path d="" fill="#19191A" transform="translate(0,0)"/>
<path d="" fill="#191617" transform="translate(0,0)"/>
<path d="" fill="#1A1A18" transform="translate(0,0)"/>
<path d="" fill="#262224" transform="translate(0,0)"/>
<path d="" fill="#1A1B1A" transform="translate(0,0)"/>
<path d="" fill="#1A1A1B" transform="translate(0,0)"/>
<path d="" fill="#181C1A" transform="translate(0,0)"/>
<path d="" fill="#1B1A1B" transform="translate(0,0)"/>
<path d="" fill="#1B1B19" transform="translate(0,0)"/>
<path d="" fill="#111210" transform="translate(0,0)"/>
<path d="" fill="#1A1D1D" transform="translate(0,0)"/>
<path d="" fill="#1B1D1E" transform="translate(0,0)"/>
<path d="" fill="#2F2E31" transform="translate(0,0)"/>
<path d="" fill="#302D2F" transform="translate(0,0)"/>
<path d="" fill="#121111" transform="translate(0,0)"/>
<path d="" fill="#202123" transform="translate(0,0)"/>
<path d="" fill="#1F211F" transform="translate(0,0)"/>
<path d="" fill="#1F201D" transform="translate(0,0)"/>
<path d="" fill="#10120D" transform="translate(0,0)"/>
<path d="" fill="#101010" transform="translate(0,0)"/>
<path d="" fill="#1F1E1D" transform="translate(0,0)"/>
<path d="" fill="#1E1E1C" transform="translate(0,0)"/>
<path d="" fill="#1A1918" transform="translate(0,0)"/>
<path d="" fill="#1C1A16" transform="translate(0,0)"/>
<path d="" fill="#212223" transform="translate(0,0)"/>
<path d="" fill="#181919" transform="translate(0,0)"/>
<path d="" fill="#191C1B" transform="translate(0,0)"/>
<path d="" fill="#141211" transform="translate(0,0)"/>
<path d="" fill="#1F1E1F" transform="translate(0,0)"/>
<path d="" fill="#131314" transform="translate(0,0)"/>
<path d="" fill="#1E1F20" transform="translate(0,0)"/>
<path d="" fill="#212022" transform="translate(0,0)"/>
<path d="" fill="#1B1718" transform="translate(0,0)"/>
<path d="" fill="#222123" transform="translate(0,0)"/>
<path d="" fill="#100F0F" transform="translate(0,0)"/>
<path d="" fill="#1F201F" transform="translate(0,0)"/>
<path d="" fill="#1E1E21" transform="translate(0,0)"/>
<path d="" fill="#2C312D" transform="translate(0,0)"/>
<path d="" fill="#1F201C" transform="translate(0,0)"/>
<path d="" fill="#2F312E" transform="translate(0,0)"/>
<path d="" fill="#171717" transform="translate(0,0)"/>
<path d="" fill="#1D1E1C" transform="translate(0,0)"/>
<path d="" fill="#1D1E1D" transform="translate(0,0)"/>
<path d="" fill="#131414" transform="translate(0,0)"/>
<path d="" fill="#191717" transform="translate(0,0)"/>
<path d="" fill="#161414" transform="translate(0,0)"/>
<path d="" fill="#181816" transform="translate(0,0)"/>
<path d="" fill="#191A19" transform="translate(0,0)"/>
<path d="" fill="#191B17" transform="translate(0,0)"/>
<path d="" fill="#201E1D" transform="translate(0,0)"/>
<path d="" fill="#161414" transform="translate(0,0)"/>
<path d="" fill="#141311" transform="translate(0,0)"/>
<path d="" fill="#111212" transform="translate(0,0)"/>
<path d="" fill="#191A19" transform="translate(0,0)"/>
<path d="" fill="#1A1C1A" transform="translate(0,0)"/>
<path d="" fill="#1C1A1A" transform="translate(0,0)"/>
<path d="" fill="#1D1B19" transform="translate(0,0)"/>
<path d="" fill="#141316" transform="translate(0,0)"/>
<path d="" fill="#100F0D" transform="translate(0,0)"/>
<path d="" fill="#1D1F1F" transform="translate(0,0)"/>
<path d="" fill="#1E1D1A" transform="translate(0,0)"/>
<path d="" fill="#151514" transform="translate(0,0)"/>
<path d="" fill="#1C1B1B" transform="translate(0,0)"/>
<path d="" fill="#1B1B19" transform="translate(0,0)"/>
<path d="" fill="#19191A" transform="translate(0,0)"/>
<path d="" fill="#1F1B1D" transform="translate(0,0)"/>
<path d="" fill="#242423" transform="translate(0,0)"/>
<path d="" fill="#1C1919" transform="translate(0,0)"/>
<path d="" fill="#201F1D" transform="translate(0,0)"/>
<path d="" fill="#1B1C19" transform="translate(0,0)"/>
<path d="" fill="#1B1A1C" transform="translate(0,0)"/>
<path d="" fill="#1B191A" transform="translate(0,0)"/>
<path d="" fill="#1A1A1C" transform="translate(0,0)"/>
<path d="" fill="#1C1A19" transform="translate(0,0)"/>
<path d="" fill="#20211F" transform="translate(0,0)"/>
<path d="" fill="#211F1E" transform="translate(0,0)"/>
<path d="" fill="#131514" transform="translate(0,0)"/>
<path d="" fill="#242323" transform="translate(0,0)"/>
<path d="" fill="#1C1D1B" transform="translate(0,0)"/>
<path d="" fill="#171818" transform="translate(0,0)"/>
<path d="" fill="#17181A" transform="translate(0,0)"/>
<path d="" fill="#19191A" transform="translate(0,0)"/>
<path d="" fill="#303030" transform="translate(0,0)"/>
<path d="" fill="#1C1C1E" transform="translate(0,0)"/>
<path d="" fill="#191516" transform="translate(0,0)"/>
<path d="" fill="#19181A" transform="translate(0,0)"/>
<path d="" fill="#181A15" transform="translate(0,0)"/>
<path d="" fill="#1A1A1A" transform="translate(0,0)"/>
<path d="" fill="#161717" transform="translate(0,0)"/>
<path d="" fill="#1A1B1C" transform="translate(0,0)"/>
<path d="" fill="#2E3130" transform="translate(0,0)"/>
<path d="" fill="#201E21" transform="translate(0,0)"/>
<path d="" fill="#1F1D1B" transform="translate(0,0)"/>
<path d="" fill="#1B1B1A" transform="translate(0,0)"/>
<path d="" fill="#1E1E1C" transform="translate(0,0)"/>
<path d="" fill="#1C1E1E" transform="translate(0,0)"/>
<path d="" fill="#1C1F1E" transform="translate(0,0)"/>
<path d="" fill="#2A2B29" transform="translate(0,0)"/>
<path d="" fill="#1D1D1C" transform="translate(0,0)"/>
<path d="" fill="#1D1E1F" transform="translate(0,0)"/>
<path d="" fill="#252323" transform="translate(0,0)"/>
<path d="" fill="#171517" transform="translate(0,0)"/>
<path d="" fill="#201D1F" transform="translate(0,0)"/>
<path d="" fill="#161514" transform="translate(0,0)"/>
<path d="" fill="#151310" transform="translate(0,0)"/>
<path d="" fill="#232120" transform="translate(0,0)"/>
<path d="" fill="#101011" transform="translate(0,0)"/>
<path d="" fill="#171819" transform="translate(0,0)"/>
<path d="" fill="#262625" transform="translate(0,0)"/>
<path d="" fill="#383738" transform="translate(0,0)"/>
<path d="" fill="#1E1C1D" transform="translate(0,0)"/>
<path d="" fill="#161714" transform="translate(0,0)"/>
<path d="" fill="#181817" transform="translate(0,0)"/>
<path d="" fill="#211C20" transform="translate(0,0)"/>
<path d="" fill="#1E201E" transform="translate(0,0)"/>
<path d="" fill="#181717" transform="translate(0,0)"/>
<path d="" fill="#201F1F" transform="translate(0,0)"/>
<path d="" fill="#1D1F1F" transform="translate(0,0)"/>
<path d="" fill="#111211" transform="translate(0,0)"/>
<path d="" fill="#191718" transform="translate(0,0)"/>
<path d="" fill="#1E1E1F" transform="translate(0,0)"/>
<path d="" fill="#101111" transform="translate(0,0)"/>
<path d="" fill="#2F302E" transform="translate(0,0)"/>
<path d="" fill="#202323" transform="translate(0,0)"/>
<path d="" fill="#1C1C1C" transform="translate(0,0)"/>
<path d="" fill="#1D1F20" transform="translate(0,0)"/>
<path d="" fill="#141213" transform="translate(0,0)"/>
<path d="" fill="#191818" transform="translate(0,0)"/>
<path d="" fill="#252423" transform="translate(0,0)"/>
<path d="" fill="#2E2D2F" transform="translate(0,0)"/>
<path d="" fill="#202221" transform="translate(0,0)"/>
<path d="" fill="#2F2E2F" transform="translate(0,0)"/>
<path d="" fill="#2F2E2E" transform="translate(0,0)"/>
<path d="" fill="#2B2D2E" transform="translate(0,0)"/>
<path d="" fill="#272A26" transform="translate(0,0)"/>
<path d="" fill="#272827" transform="translate(0,0)"/>
<path d="" fill="#282728" transform="translate(0,0)"/>
<path d="" fill="#272925" transform="translate(0,0)"/>
<path d="" fill="#242727" transform="translate(0,0)"/>
<path d="" fill="#272322" transform="translate(0,0)"/>
<path d="" fill="#232724" transform="translate(0,0)"/>
<path d="" fill="#1C1B1A" transform="translate(0,0)"/>
<path d="" fill="#212320" transform="translate(0,0)"/>
<path d="" fill="#2F2E30" transform="translate(0,0)"/>
<path d="" fill="#252221" transform="translate(0,0)"/>
<path d="" fill="#363433" transform="translate(0,0)"/>
<path d="" fill="#292A2C" transform="translate(0,0)"/>
<path d="" fill="#141515" transform="translate(0,0)"/>
<path d="" fill="#292B29" transform="translate(0,0)"/>
<path d="" fill="#1C1A1D" transform="translate(0,0)"/>
<path d="" fill="#242221" transform="translate(0,0)"/>
<path d="" fill="#201F20" transform="translate(0,0)"/>
<path d="" fill="#22201E" transform="translate(0,0)"/>
<path d="" fill="#221F1E" transform="translate(0,0)"/>
<path d="" fill="#242321" transform="translate(0,0)"/>
<path d="" fill="#1F201F" transform="translate(0,0)"/>
<path d="" fill="#1F2020" transform="translate(0,0)"/>
<path d="" fill="#171717" transform="translate(0,0)"/>
<path d="" fill="#1E1D1F" transform="translate(0,0)"/>
<path d="" fill="#1D2020" transform="translate(0,0)"/>
<path d="" fill="#201F20" transform="translate(0,0)"/>
<path d="" fill="#292927" transform="translate(0,0)"/>
<path d="" fill="#30312F" transform="translate(0,0)"/>
<path d="" fill="#2B282A" transform="translate(0,0)"/>
<path d="" fill="#2B2B2B" transform="translate(0,0)"/>
<path d="" fill="#2A2C2B" transform="translate(0,0)"/>
<path d="" fill="#292B2B" transform="translate(0,0)"/>
<path d="" fill="#343231" transform="translate(0,0)"/>
<path d="" fill="#343336" transform="translate(0,0)"/>
<path d="" fill="#282828" transform="translate(0,0)"/>
<path d="" fill="#292827" transform="translate(0,0)"/>
<path d="" fill="#2B2A28" transform="translate(0,0)"/>
<path d="" fill="#2B2E2B" transform="translate(0,0)"/>
<path d="" fill="#282927" transform="translate(0,0)"/>
<path d="" fill="#2D312F" transform="translate(0,0)"/>
<path d="" fill="#2E2E2D" transform="translate(0,0)"/>
<path d="" fill="#373539" transform="translate(0,0)"/>
<path d="" fill="#292B29" transform="translate(0,0)"/>
<path d="" fill="#363936" transform="translate(0,0)"/>
<path d="" fill="#292828" transform="translate(0,0)"/>
<path d="" fill="#302F30" transform="translate(0,0)"/>
<path d="" fill="#333434" transform="translate(0,0)"/>
<path d="" fill="#292A28" transform="translate(0,0)"/>
<path d="" fill="#2A2B2A" transform="translate(0,0)"/>
<path d="" fill="#343736" transform="translate(0,0)"/>
<path d="" fill="#2D2D2D" transform="translate(0,0)"/>
<path d="" fill="#303030" transform="translate(0,0)"/>
<path d="" fill="#363634" transform="translate(0,0)"/>
<path d="" fill="#363634" transform="translate(0,0)"/>
<path d="" fill="#393839" transform="translate(0,0)"/>
<path d="" fill="#7A7A7A" transform="translate(0,0)"/>
<path d="" fill="#8F9393" transform="translate(0,0)"/>
<path d="" fill="#8C8C8C" transform="translate(0,0)"/>
<path d="" fill="#919290" transform="translate(0,0)"/>
<path d="" fill="#929294" transform="translate(0,0)"/>
<path d="" fill="#A9A9AB" transform="translate(0,0)"/>
</svg>
